
<svg version="1.0" xmlns="http://www.w3.org/2000/svg"
 width="200.000000pt" height="200.000000pt" viewBox="0 0 200.000000 200.000000"
 preserveAspectRatio="xMidYMid meet">

<g transform="translate(0.000000,200.000000) scale(0.100000,-0.100000)"
fill="#000000" stroke="none">
<path d="M1175 1906 c-101 -46 -158 -119 -176 -222 -13 -80 -3 -132 26 -146
19 -9 36 -5 91 21 120 56 177 144 178 277 1 97 -25 113 -119 70z"/>
<path d="M633 1880 c-24 -10 -37 -39 -27 -63 3 -8 24 -23 47 -32 65 -26 101
-58 135 -122 33 -62 62 -164 62 -219 l0 -32 -61 25 c-140 56 -328 70 -441 32
-325 -109 -391 -523 -160 -998 158 -327 392 -460 647 -370 l63 22 54 -24 c44
-19 70 -23 153 -24 89 0 107 3 163 29 34 16 62 31 62 34 0 3 -51 58 -114 121
-145 148 -161 177 -161 296 0 78 4 97 27 140 34 65 100 128 163 156 74 34 181
33 256 -2 52 -25 57 -25 85 -11 16 9 56 23 89 32 l60 15 3 90 c5 158 -36 287
-122 382 -86 95 -190 136 -341 135 -94 -1 -210 -26 -289 -61 l-44 -19 -7 70
c-9 93 -38 205 -68 265 -55 106 -157 164 -234 133z"/>
<path d="M1302 757 c-124 -45 -183 -192 -119 -299 30 -51 347 -368 368 -368
23 0 366 350 384 392 38 94 -5 212 -95 258 -87 45 -174 34 -243 -30 l-42 -38
-42 37 c-63 57 -139 74 -211 48z"/>
</g>
</svg>
