<?xml version="1.0" encoding="UTF-8"?>
<svg version="1.1" xmlns="http://www.w3.org/2000/svg" width="1026" height="243">
<path d="M0 0 C4.70321169 5.28320416 5.19735152 12.92615507 5.25390625 19.70703125 C5.27199341 20.56006836 5.29008057 21.41310547 5.30871582 22.29199219 C5.36456501 25.18030281 5.39796989 28.06836052 5.4296875 30.95703125 C5.46166949 33.07161954 5.49399003 35.18620273 5.52661133 37.30078125 C5.62201506 44.13505641 5.68008699 50.96945023 5.72729492 57.80419922 C5.74275274 60.0387414 5.75908187 62.27327638 5.77539062 64.5078125 C6.03462299 101.01856355 6.12912141 137.52535806 4.8671875 174.01953125 C4.82798187 175.20957764 4.78877625 176.39962402 4.74838257 177.62573242 C4.6353602 180.93594291 4.50862186 184.24525103 4.375 187.5546875 C4.34155991 188.50287857 4.30811981 189.45106964 4.27366638 190.42799377 C3.97739132 196.9839446 2.82310728 202.71427191 0.7421875 208.95703125 C-5.01587543 211.26645622 -10.67630136 211.3233838 -16.8203125 211.33203125 C-17.74005859 211.35652344 -18.65980469 211.38101563 -19.60742188 211.40625 C-25.35333842 211.43103469 -28.75122112 210.86503721 -33.2578125 206.95703125 C-44.49971604 195.52377616 -51.0361486 178.61175708 -57.93115234 164.38891602 C-59.38292437 161.39430048 -60.84123038 158.40294014 -62.30078125 155.41210938 C-63.24777541 153.46763273 -64.19440243 151.52297723 -65.140625 149.578125 C-65.565784 148.7048204 -65.99094299 147.83151581 -66.4289856 146.93174744 C-69.79656296 139.981938 -73.03932785 132.97698394 -76.2578125 125.95703125 C-76.26589935 126.9635524 -76.27398621 127.97007355 -76.28231812 129.00709534 C-76.36024318 138.55330636 -76.44809378 148.09938293 -76.54533958 157.64541721 C-76.59500865 162.55158802 -76.64133796 167.45774029 -76.6796875 172.36401367 C-76.71691573 177.11036864 -76.76337014 181.85655638 -76.81587601 186.60276604 C-76.83422281 188.40175339 -76.84940107 190.2007763 -76.86115646 191.9998188 C-77.06731801 222.49668878 -77.06731801 222.49668878 -83.2578125 230.95703125 C-93.46867827 232.00132434 -102.31667566 229.8228164 -111.2578125 224.95703125 C-113.56771743 222.43976534 -114.55376434 220.2694102 -115.2578125 216.95703125 C-115.42474609 216.41844482 -115.59167969 215.8798584 -115.76367188 215.32495117 C-116.4684086 211.94785557 -116.49544375 208.57717542 -116.57421875 205.140625 C-116.59499985 204.37009293 -116.61578094 203.59956085 -116.63719177 202.80567932 C-116.68041692 201.1674639 -116.72146364 199.52918977 -116.76049805 197.89086914 C-116.81886183 195.4550745 -116.88437913 193.01956072 -116.95117188 190.58398438 C-116.99262457 188.9778758 -117.0336515 187.37175618 -117.07421875 185.765625 C-117.09295547 185.06690781 -117.1116922 184.36819061 -117.1309967 183.64830017 C-117.54381774 165.79078866 -117.169806 147.91900677 -116.890625 130.0625 C-116.87105618 128.80554132 -116.85148735 127.54858265 -116.83132553 126.25353432 C-116.74852441 120.96251347 -116.66508097 115.67150481 -116.57913399 110.38053417 C-116.45777478 102.90672598 -116.34195125 95.43287901 -116.23382866 87.95886725 C-116.14700191 81.99311353 -116.05096109 76.02754047 -115.951931 70.06197548 C-115.91169065 67.5598512 -115.87417873 65.05768124 -115.83966446 62.55547142 C-115.67143714 50.51418658 -115.38717003 38.50745967 -114.40576172 26.5012207 C-114.3380765 25.59018931 -114.27039127 24.67915792 -114.20065498 23.74051952 C-113.47409744 15.87519704 -113.47409744 15.87519704 -110.2578125 12.95703125 C-103.13449933 10.58259353 -96.073605 11.99803228 -88.9453125 13.70703125 C-88.26380127 13.86389404 -87.58229004 14.02075684 -86.88012695 14.18237305 C-81.1511204 15.65107816 -77.69798333 17.72381481 -74.484375 22.70703125 C-70.66215789 30.46333524 -67.55467887 38.28952835 -64.83056641 46.5 C-63.00351898 51.99118712 -60.91013112 57.31200259 -58.65429688 62.64111328 C-57.11603394 66.29368097 -55.62189331 69.96233718 -54.13671875 73.63671875 C-53.86649902 74.30406036 -53.5962793 74.97140198 -53.31787109 75.65896606 C-52.20744419 78.40158131 -51.09792859 81.14456205 -49.98999023 83.88818359 C-45.07776447 99.43098263 -45.07776447 99.43098263 -37.2578125 112.95703125 C-36.88331038 108.04268699 -36.55769678 103.12640155 -36.2578125 98.20703125 C-36.18528763 97.01734238 -36.18528763 97.01734238 -36.11129761 95.80361938 C-35.37214211 83.06873221 -35.18674088 70.3612837 -35.23046875 57.609375 C-35.23272839 56.8534544 -35.23498802 56.0975338 -35.23731613 55.31870651 C-35.26209091 47.63172308 -35.30770972 39.94532881 -35.39605045 32.25880337 C-35.42712296 29.32750422 -35.44640113 26.39619469 -35.4635601 23.46478462 C-35.47467313 22.09129645 -35.49136844 20.71784001 -35.5141468 19.34449577 C-35.7571585 4.60481477 -35.7571585 4.60481477 -32.2578125 -2.04296875 C-24.80870979 -7.68622838 -7.75407962 -3.58190183 0 0 Z " fill="#E3FD03" transform="translate(421.2578125,10.04296875)"/>
<path d="M0 0 C3.18881587 1.91677457 5.19548786 3.61549741 7.26953125 6.7265625 C7.43941188 9.37292105 7.49783031 11.90011071 7.44921875 14.54296875 C7.44163544 15.3065419 7.43405212 16.07011505 7.42623901 16.85682678 C7.32922683 23.81086144 6.89125114 30.72826259 6.39453125 37.6640625 C4.99754368 58.49009366 4.54549657 79.36133879 3.96728516 100.22241211 C3.29263377 124.45846079 3.29263377 124.45846079 2.75390625 135.31640625 C2.71559189 136.09116302 2.67727753 136.8659198 2.63780212 137.66415405 C1.3867057 161.13392198 -7.02555395 183.63599719 -24.73046875 199.7265625 C-28.25438185 202.37071247 -31.8678906 204.61477912 -35.73046875 206.7265625 C-36.82359375 207.3659375 -37.91671875 208.0053125 -39.04296875 208.6640625 C-55.0171492 213.26679246 -70.02134278 206.3104715 -83.83203125 198.79101562 C-98.5805586 190.52152241 -107.76157265 180.61823233 -112.80078125 164.25 C-113.56441838 161.08424219 -114.19726247 157.93859711 -114.73046875 154.7265625 C-114.86066406 153.97246094 -114.99085938 153.21835938 -115.125 152.44140625 C-116.95856035 139.36200911 -115.59062701 125.60805242 -114.9309082 112.47460938 C-114.79317358 109.73064324 -114.660781 106.98645956 -114.52929688 104.2421875 C-113.19077685 76.63804653 -113.19077685 76.63804653 -111.73046875 66.7265625 C-111.54288744 64.41566499 -111.37622698 62.10297446 -111.23046875 59.7890625 C-110.94153525 55.49117672 -110.57175347 51.25271154 -109.98046875 46.984375 C-109.48128919 42.47615957 -109.27552911 37.93733042 -109.01171875 33.41015625 C-108.82301639 30.93867956 -108.5480936 28.47240298 -108.19140625 26.01953125 C-107.82438888 23.39753431 -107.6967147 21.2157125 -107.85546875 18.6015625 C-107.90759194 12.54484757 -106.94328689 6.36811591 -104.73046875 0.7265625 C-102.42412561 -1.59518193 -100.77446985 -3.0152845 -97.58203125 -3.8046875 C-87.74148755 -3.66657461 -76.48446613 -1.60624768 -68.73046875 4.7265625 C-67.48828125 7.13671875 -67.48828125 7.13671875 -66.85546875 9.7890625 C-66.63117188 10.64628906 -66.406875 11.50351562 -66.17578125 12.38671875 C-65.08120289 20.59605643 -65.79043945 28.81210949 -66.75390625 37 C-66.97222955 38.95990881 -67.19006459 40.91987205 -67.4074707 42.87988281 C-67.52176422 43.89425415 -67.63605774 44.90862549 -67.7538147 45.95373535 C-70.92606141 74.35006476 -72.85364464 102.59032935 -72.98046875 131.1640625 C-72.9886412 132.27412659 -72.9886412 132.27412659 -72.99697876 133.40661621 C-73.06157938 145.05958628 -72.69039573 156.64770067 -68.73046875 167.7265625 C-60.03202432 165.29611479 -53.34683662 161.9789215 -48.69750977 153.94067383 C-45.32628591 147.17712178 -44.46019133 140.22359661 -43.54296875 132.7890625 C-43.29643555 131.03045898 -43.29643555 131.03045898 -43.04492188 129.23632812 C-41.48050245 117.15799675 -41.16507916 105.041035 -40.79587936 92.87731552 C-40.69995472 89.7232369 -40.60155466 86.56923623 -40.50338078 83.41522694 C-40.44864448 81.65632373 -40.39402219 79.89741697 -40.3395071 78.13850689 C-40.10809857 70.67902068 -39.87121759 63.21971566 -39.63044834 55.7605257 C-39.47454982 50.91312287 -39.32393584 46.06565337 -39.18359375 41.21777344 C-39.04522719 36.44763336 -38.89351168 31.67808392 -38.73270798 26.90864944 C-38.67450096 25.11237054 -38.62106092 23.31593004 -38.57268143 21.51935959 C-38.50469022 19.02061182 -38.419572 16.52297789 -38.33056641 14.02490234 C-38.31487106 13.29969894 -38.29917572 12.57449554 -38.28300476 11.82731628 C-38.04630791 5.98963354 -37.00565637 0.00175012 -32.73046875 -4.2734375 C-22.53300079 -7.67259349 -9.51561829 -4.43789923 0 0 Z " fill="#E3FD03" transform="translate(275.73046875,13.2734375)"/>
<path d="M0 0 C7.52202942 6.52283446 12.66162245 13.60701427 17.6171875 22.14453125 C17.9673291 22.74740967 18.3174707 23.35028809 18.67822266 23.97143555 C22.7496353 31.17524485 22.54965136 37.43717249 22.6171875 45.58203125 C22.66069336 47.30196289 22.66069336 47.30196289 22.70507812 49.05664062 C22.75909844 56.31614006 21.90755417 61.57741203 18.3046875 67.89453125 C17.52738281 69.3640625 17.52738281 69.3640625 16.734375 70.86328125 C13.06470643 76.83801802 9.0654874 81.24661139 3.71875 85.76953125 C1.4666327 87.75197755 -0.40821737 89.77703986 -2.3203125 92.08203125 C-5.6900571 96.05660181 -9.42380136 98.94316742 -13.6953125 101.89453125 C-14.59636719 102.53003906 -15.49742188 103.16554688 -16.42578125 103.8203125 C-18.84251591 105.52123012 -21.26586703 107.21184156 -23.6953125 108.89453125 C-23.28950637 114.7110858 -20.86703857 118.05407887 -17.5078125 122.58203125 C-16.70585449 123.69179321 -16.70585449 123.69179321 -15.88769531 124.82397461 C-13.07457679 128.70319834 -10.2127949 132.54583889 -7.34765625 136.38671875 C-0.62559757 145.40863329 5.86582783 154.53778837 12.1171875 163.89453125 C12.8174707 164.9400415 13.51775391 165.98555176 14.23925781 167.06274414 C15.20943848 168.52635376 15.20943848 168.52635376 16.19921875 170.01953125 C17.06317261 171.32277344 17.06317261 171.32277344 17.94458008 172.65234375 C20.69513521 177.18673584 21.40198868 181.73798303 20.3046875 186.89453125 C14.70213508 196.69580746 14.70213508 196.69580746 10.3046875 198.89453125 C2.09766636 199.75842821 -2.84044702 196.98328782 -9.171875 191.91015625 C-14.2802346 187.4502262 -18.88833967 182.64207144 -23.35546875 177.546875 C-25.42462123 175.20137494 -27.54195183 172.91134834 -29.68188477 170.63061523 C-35.61631863 164.27877789 -41.00234721 157.59111827 -46.29833984 150.703125 C-49.10740805 147.06635861 -51.96707791 143.46902043 -54.81640625 139.86376953 C-58.17896551 135.59223624 -61.44779269 131.25402317 -64.6953125 126.89453125 C-64.71513184 127.8175 -64.73495117 128.74046875 -64.75537109 129.69140625 C-65.1215143 146.06872893 -65.53291921 162.44769762 -66.45440674 178.8046875 C-66.53137425 180.19245343 -66.60363747 181.58048865 -66.67108154 182.96875 C-66.76678102 184.90308379 -66.88292214 186.83637363 -67 188.76953125 C-67.06171387 189.86007813 -67.12342773 190.950625 -67.18701172 192.07421875 C-67.75070543 195.20187955 -68.43236529 196.67808744 -70.6953125 198.89453125 C-76.84245373 199.83223076 -82.07699599 198.44274931 -87.9453125 196.70703125 C-88.63069092 196.51117432 -89.31606934 196.31531738 -90.0222168 196.11352539 C-94.7223103 194.61754589 -97.60080778 192.72776172 -100.6953125 188.89453125 C-101.84913659 185.5847383 -101.81025281 182.4328765 -101.79296875 178.94970703 C-101.78966553 177.74549103 -101.7863623 176.54127502 -101.78295898 175.30056763 C-101.77466064 173.99352875 -101.7663623 172.68648987 -101.7578125 171.33984375 C-101.75339327 169.9601153 -101.74958039 168.58038479 -101.74633789 167.20065308 C-101.7330392 162.08468284 -101.70943602 156.96877144 -101.68493652 151.85284424 C-101.66138465 146.86935274 -101.64292373 141.88588171 -101.6328125 136.90234375 C-101.63133335 136.19673183 -101.6298542 135.49111992 -101.62833023 134.76412582 C-101.61143989 121.91850687 -101.96178314 109.10610107 -102.46435547 96.27050781 C-103.00261371 82.36621564 -102.7461118 68.5336502 -102.05126953 54.63916016 C-101.79927768 49.44059518 -101.68173394 44.27155947 -101.71484375 39.06640625 C-101.73955023 31.85705568 -101.38072934 24.70992093 -100.8828125 17.51953125 C-100.81255859 16.31425781 -100.74230469 15.10898437 -100.66992188 13.8671875 C-99.60596455 -1.64105452 -99.60596455 -1.64105452 -94.0078125 -7.10546875 C-90.0671843 -9.48471596 -87.1382031 -9.92011041 -82.6953125 -9.10546875 C-81.36390484 -8.56557715 -80.03992186 -8.00712719 -78.72265625 -7.43359375 C-72.57602836 -5.32567419 -67.22872843 -6.88534808 -61.0703125 -8.35546875 C-58.89092778 -8.84120426 -56.71124755 -9.32561608 -54.53125 -9.80859375 C-53.00298584 -10.15434448 -53.00298584 -10.15434448 -51.44384766 -10.50708008 C-32.89058077 -14.54634612 -15.14619626 -11.83159389 0 0 Z M-64.6953125 28.89453125 C-65.71312778 31.9479771 -65.81628491 33.99736917 -65.80883789 37.19213867 C-65.80876236 38.27303268 -65.80868683 39.3539267 -65.80860901 40.46757507 C-65.80344772 41.6332753 -65.79828644 42.79897552 -65.79296875 44 C-65.7915538 45.19434158 -65.79013885 46.38868317 -65.78868103 47.61921692 C-65.783076 51.44018033 -65.77052261 55.2610855 -65.7578125 59.08203125 C-65.75279815 61.66992103 -65.74823513 64.25781173 -65.74414062 66.84570312 C-65.73310493 73.19533243 -65.71636186 79.54492768 -65.6953125 85.89453125 C-65.0353125 86.22453125 -64.3753125 86.55453125 -63.6953125 86.89453125 C-60.92690187 85.77494488 -60.92690187 85.77494488 -57.8828125 84.14453125 C-56.84511719 83.6134375 -55.80742188 83.08234375 -54.73828125 82.53515625 C-50.63831492 80.34541331 -50.63831492 80.34541331 -46.6953125 77.89453125 C-46.6953125 77.23453125 -46.6953125 76.57453125 -46.6953125 75.89453125 C-46.17710938 75.68054688 -45.65890625 75.4665625 -45.125 75.24609375 C-30.56240539 67.14535784 -18.74418409 51.86458001 -14.11254883 35.88378906 C-13.16101512 31.34716144 -13.00103785 28.03512533 -15.4453125 24.01953125 C-21.11900076 18.66104789 -31.51234395 20.52475428 -38.80859375 20.609375 C-48.38866232 20.91386847 -56.94453736 22.99989239 -64.6953125 28.89453125 Z M-65.6953125 122.89453125 C-64.6953125 124.89453125 -64.6953125 124.89453125 -64.6953125 124.89453125 Z " fill="#E4FD04" transform="translate(125.6953125,21.10546875)"/>
<path d="M0 0 C11.04440521 -0.32064402 21.38094643 0.41555455 31.82421875 4.21484375 C33.37347221 4.77391008 34.94161659 5.28175504 36.51953125 5.75390625 C37.74736328 6.12322266 37.74736328 6.12322266 39 6.5 C39.7425 6.7165625 40.485 6.933125 41.25 7.15625 C41.8275 7.4346875 42.405 7.713125 43 8 C43.495 9.485 43.495 9.485 44 11 C44.99 11.33 45.98 11.66 47 12 C47.88090358 15.02810606 48.46405958 17.89780473 49 21 C49.25087614 22.33471555 49.50221393 23.66934437 49.75390625 25.00390625 C51.41336453 34.0836574 52.41662744 43.00956894 52.7890625 52.23046875 C52.992975 55.87446071 53.45207605 59.39389583 54 63 C54.23042021 65.39198127 54.43027247 67.78427144 54.62109375 70.1796875 C54.94006488 72.55388501 55.39521478 74.76763738 55.9453125 77.09375 C57.19594467 82.55897298 57.80600628 88.05996162 58.4375 93.625 C59.37484337 101.5141074 60.53362876 109.20947002 62.20947266 116.97509766 C63.1205541 121.43357909 63.7649938 125.92017189 64.39453125 130.42578125 C64.52249588 131.33303955 64.65046051 132.24029785 64.78230286 133.17504883 C66.1898512 143.23331839 67.51329937 153.30225156 68.78979492 163.37792969 C69.05681317 165.47408028 69.32737056 167.56978283 69.60131836 169.66503906 C73.66554305 200.76393773 73.66554305 200.76393773 70.69213867 204.75585938 C68.04671233 206.70090232 65.15873791 207.22416964 62 208 C61.34 208.20625 60.68 208.4125 60 208.625 C53.94345456 209.76060227 49.39154379 208.95009 44 206 C37.48345747 200.04201826 35.78848152 190.00012304 34.4296875 181.6328125 C33.24850919 174.39541088 31.65514175 167.04590205 28.875 160.25 C28 158 28 158 28 155 C27.01 155.33 26.02 155.66 25 156 C23.27326455 156.19213445 21.54161403 156.34167041 19.80859375 156.46484375 C18.78056641 156.54283203 17.75253906 156.62082031 16.69335938 156.70117188 C14.5502681 156.85672919 12.40704074 157.01042481 10.26367188 157.16210938 C7.17024575 157.39858633 4.08695821 157.69115401 1 158 C0.05398926 158.06461426 -0.89202148 158.12922852 -1.86669922 158.19580078 C-6.73573539 158.72117306 -6.73573539 158.72117306 -10.38745117 161.7019043 C-11.52999237 164.10300693 -12.28746423 166.43784398 -13 169 C-13.28069336 169.93521484 -13.56138672 170.87042969 -13.85058594 171.83398438 C-14.74883072 174.95999858 -15.56850924 178.09912484 -16.375 181.25 C-16.98208036 183.55234528 -17.59016865 185.854425 -18.19921875 188.15625 C-18.50005371 189.3009375 -18.80088867 190.445625 -19.11083984 191.625 C-20.44123841 196.67481597 -21.79523052 201.7168962 -23.1875 206.75 C-23.4129248 207.59981445 -23.63834961 208.44962891 -23.87060547 209.32519531 C-25.23833776 214.22598769 -26.74725209 218.04580073 -30 222 C-36.76546276 224.0177696 -42.45340064 222.22134238 -49 220 C-50.33998047 219.66935547 -50.33998047 219.66935547 -51.70703125 219.33203125 C-54 218 -54 218 -55.328125 215.14453125 C-56.52127603 209.72913802 -56.02980848 204.18280833 -55.75 198.6875 C-55.69005859 197.07198242 -55.69005859 197.07198242 -55.62890625 195.42382812 C-55.22935554 186.50952791 -53.86473181 178.44582287 -51 170 C-50.40844513 167.25249399 -49.84950019 164.50789424 -49.3125 161.75 C-47.02822624 150.49726141 -43.98182269 139.4716734 -40.93212891 128.40673828 C-39.99512366 124.98217799 -39.07819885 121.55286112 -38.16796875 118.12109375 C-35.03528559 106.31903017 -31.76381542 94.61655988 -28 83 C-27.18324991 80.43873514 -26.36972894 77.87675155 -25.5625 75.3125 C-25.25566284 74.34280273 -25.25566284 74.34280273 -24.94262695 73.35351562 C-23.74480412 69.5256804 -22.62440285 65.68425961 -21.5625 61.81640625 C-19.11072253 52.90085183 -16.50563906 44.50719263 -12.64453125 36.08203125 C-9.75153315 29.31015301 -7.87303979 22.11491685 -5.80322266 15.05981445 C-4.23760949 9.77459092 -2.7309237 4.80236737 0 0 Z M15 63 C13.07948337 68.37744656 11.5350239 73.73898368 10.1875 79.2890625 C8.07440892 87.87609556 5.68409162 96.37440312 3.25 104.875 C2.43973943 107.70489363 1.63285724 110.53571748 0.828125 113.3671875 C0.3007373 115.20966064 0.3007373 115.20966064 -0.23730469 117.08935547 C-1.0844929 119.82096154 -1.0844929 119.82096154 -1 122 C1.36794003 123.18397001 2.82581309 123.12913001 5.46484375 123.1328125 C6.78838867 123.13474609 6.78838867 123.13474609 8.13867188 123.13671875 C9.06228516 123.13285156 9.98589844 123.12898438 10.9375 123.125 C11.85724609 123.12886719 12.77699219 123.13273437 13.72460938 123.13671875 C14.60826172 123.13542969 15.49191406 123.13414062 16.40234375 123.1328125 C17.21179443 123.13168457 18.02124512 123.13055664 18.85522461 123.12939453 C21.18635438 123.08150607 21.18635438 123.08150607 24 122 C23.45356483 110.92245422 22.14721852 100.08614973 20.5 89.125 C20.04970158 86.08628632 19.60256972 83.04711284 19.15625 80.0078125 C19.05119141 79.29594788 18.94613281 78.58408325 18.83789062 77.85064697 C18.11453452 72.90834559 17.49809827 67.9696623 17 63 C16.34 63 15.68 63 15 63 Z " fill="#E4FE03" transform="translate(804,18)"/>
<path d="M0 0 C1.26779297 -0.01611328 2.53558594 -0.03222656 3.84179688 -0.04882812 C16.09535719 -0.05510878 26.99766572 0.75835764 35.9609375 9.70703125 C40.59993701 15.45835592 43.86535073 21.78834766 43.0625 29.3125 C37.8923135 36.10930913 24.853484 35.90067762 16.89047241 36.98626709 C15.28167525 37.19969336 13.67258942 37.4109542 12.06323242 37.62011719 C9.63151168 37.93665238 7.20149335 38.26435695 4.77148438 38.59375 C-4.12154323 39.78310551 -12.97891611 40.75951332 -21.9375 41.3125 C-22.05343506 42.48345215 -22.16937012 43.6544043 -22.28881836 44.86083984 C-22.71909088 49.19604059 -23.15453115 53.53070922 -23.59155273 57.86523438 C-23.78014372 59.74302234 -23.96732394 61.62095254 -24.15307617 63.49902344 C-24.41997389 66.19504624 -24.69190427 68.89052051 -24.96484375 71.5859375 C-25.0883445 72.85006973 -25.0883445 72.85006973 -25.21434021 74.13973999 C-25.82362829 80.08475659 -25.82362829 80.08475659 -26.9375 82.3125 C-26.13965088 82.15241455 -25.34180176 81.9923291 -24.51977539 81.82739258 C-20.19734749 81.20611537 -15.98225854 81.11225601 -11.62109375 81.07421875 C-10.7281813 81.066147 -9.83526886 81.05807526 -8.91529846 81.04975891 C-7.02843129 81.03597025 -5.14153972 81.02522493 -3.25463867 81.01733398 C-1.34733641 81.00585298 0.55993471 80.98546317 2.46704102 80.95581055 C26.81281689 80.57801307 26.81281689 80.57801307 37.125 87.3125 C41.3379607 93.83579399 43.89090346 101.52550748 43.0625 109.3125 C42.5675 110.7975 42.5675 110.7975 42.0625 112.3125 C25.44507204 119.11053871 3.46765783 118.50673629 -14.16650391 119.66625977 C-15.24077637 119.73772217 -16.31504883 119.80918457 -17.421875 119.8828125 C-18.36772461 119.94227051 -19.31357422 120.00172852 -20.28808594 120.06298828 C-22.89412474 120.30841508 -25.38247806 120.75159917 -27.9375 121.3125 C-29.44055004 125.82165011 -30.07428062 129.41789397 -29.9453125 134.2265625 C-29.93441548 137.13606561 -30.30315892 139.96211386 -30.6484375 142.84765625 C-31.76360509 152.35672041 -32.06493503 161.74071309 -31.9375 171.3125 C-29.2914713 171.16971774 -26.64571857 171.02333736 -24 170.875 C-23.26458984 170.83568359 -22.52917969 170.79636719 -21.77148438 170.75585938 C-18.03568808 170.5437836 -14.33555766 170.25945994 -10.62109375 169.8046875 C-5.06548823 169.16581398 0.47399367 168.97654554 6.0625 168.875 C7.09117187 168.82923828 8.11984375 168.78347656 9.1796875 168.73632812 C18.22671746 168.60396064 22.99732268 171.74307601 29.625 177.5625 C31.0625 179.3125 31.0625 179.3125 31.0625 181.3125 C32.0525 181.6425 33.0425 181.9725 34.0625 182.3125 C37.63886617 186.28624019 37.52126764 190.60860507 37.75390625 195.69140625 C37.0625 198.3125 37.0625 198.3125 34.4765625 200.58203125 C30.75703024 202.46733193 28.01335617 203.03438551 23.875 203.4375 C22.84004395 203.54795654 22.84004395 203.54795654 21.78417969 203.66064453 C19.545006 203.8961628 17.304662 204.10749138 15.0625 204.3125 C11.97832098 204.59595042 8.89494544 204.88573776 5.8125 205.1875 C5.02512451 205.26427979 4.23774902 205.34105957 3.42651367 205.42016602 C-2.57222118 206.05412941 -8.41340572 207.12794163 -14.3125 208.375 C-40.14137821 213.80731322 -40.14137821 213.80731322 -51.5625 208.6875 C-52.70284932 207.91810769 -53.82669164 207.12395911 -54.9375 206.3125 C-56.06865234 205.58546875 -56.06865234 205.58546875 -57.22265625 204.84375 C-63.35541724 200.6156351 -66.29826771 196.58530941 -67.9375 189.3125 C-68.04649507 187.28743496 -68.08311923 185.25759574 -68.05957031 183.22973633 C-68.04631714 182.08558258 -68.03306396 180.94142883 -68.01940918 179.76260376 C-67.89662157 174.59065608 -67.68797972 169.42816132 -67.421875 164.26171875 C-67.36617844 163.14445908 -67.31048187 162.0271994 -67.25309753 160.87608337 C-67.06962337 157.2504408 -66.87948487 153.6252014 -66.6875 150 C-66.62225128 148.75393982 -66.55700256 147.50787964 -66.48977661 146.22406006 C-65.54882593 128.43863106 -64.37904542 110.68427225 -62.875 92.9375 C-62.79318481 91.97041107 -62.71136963 91.00332214 -62.6270752 90.00692749 C-61.7363133 79.57935949 -60.75746581 69.16451704 -59.59947205 58.76296997 C-58.95615268 52.89036251 -58.57462792 47.01910811 -58.26222229 41.12068176 C-58.02097567 36.58463552 -57.68744842 32.0797689 -57.17578125 27.56640625 C-57.00959908 25.99448634 -56.88520492 24.41783019 -56.79296875 22.83984375 C-56.28494327 15.19583245 -54.3462547 7.04552057 -48.9375 1.3125 C-46.17607697 0.78450324 -43.77384455 1.12651019 -40.9375 1.3125 C-40.9375 1.9725 -40.9375 2.6325 -40.9375 3.3125 C-38.85370973 3.19536386 -36.77048038 3.06824985 -34.6875 2.9375 C-32.94726562 2.83308594 -32.94726562 2.83308594 -31.171875 2.7265625 C-27.85660572 2.46584754 -24.6545141 1.90436272 -21.38671875 1.29296875 C-14.25002014 0.06755411 -7.22684219 -0.01831435 0 0 Z " fill="#E3FD04" transform="translate(702.9375,16.6875)"/>
<path d="M0 0 C1.09248047 -0.0309375 1.09248047 -0.0309375 2.20703125 -0.0625 C6.77609046 -0.09566921 9.60922454 0.4607503 13.25 3.25 C18.73539557 8.89212116 19.53113069 15.23241578 19.5 22.875 C19.50773437 24.78152344 19.50773437 24.78152344 19.515625 26.7265625 C19.21138838 30.76217177 18.55367967 33.62289519 16.00610352 36.80249023 C13.72857364 38.67979798 11.86582871 39.04356628 8.98046875 39.63671875 C7.93238037 39.85303955 6.88429199 40.06936035 5.80444336 40.29223633 C4.1378064 40.61164185 4.1378064 40.61164185 2.4375 40.9375 C1.31287354 41.15881592 0.18824707 41.38013184 -0.97045898 41.6081543 C-9.0083699 43.1119692 -16.56675303 43.9087587 -24.75 43.25 C-25.11687701 50.91538776 -25.44119817 58.58206164 -25.75 66.25 C-25.79393387 67.33110046 -25.83786774 68.41220093 -25.88313293 69.52606201 C-26.64180163 89.06003131 -26.85478534 108.58721758 -26.95087409 128.13455868 C-26.96430262 130.82707417 -26.97889235 133.51958294 -26.99342948 136.21209264 C-27.0570825 148.06380097 -27.11679338 159.91550154 -27.15136719 171.76733398 C-27.16968459 178.02114072 -27.19851948 184.27480407 -27.2393719 190.52850538 C-27.26036441 193.81176114 -27.27420081 197.09479957 -27.27817917 200.37812614 C-27.2830537 204.00222247 -27.30610191 207.62577009 -27.33349609 211.24975586 C-27.32898689 212.86463898 -27.32898689 212.86463898 -27.3243866 214.512146 C-27.34102608 215.98441902 -27.34102608 215.98441902 -27.35800171 217.48643494 C-27.36131186 218.33917968 -27.364622 219.19192442 -27.36803246 220.07050991 C-27.83943582 222.76031688 -28.59789099 223.6132362 -30.75 225.25 C-38.26427516 227.75475839 -46.6292824 226.12472627 -53.63745117 222.77148438 C-61.03983721 218.96016279 -61.03983721 218.96016279 -63.75 216.25 C-63.91056824 213.97871399 -63.91056824 213.97871399 -63.81323242 211.2121582 C-63.73426381 206.85475947 -63.94974767 202.70523815 -64.45195007 198.38264465 C-66.62289024 179.22179835 -66.01021607 159.8384152 -65.94561768 140.58770752 C-65.93494302 136.60959161 -65.9351878 132.63151097 -65.93563652 128.65338326 C-65.9348032 101.17415518 -65.49198067 73.71883569 -64.75 46.25 C-66.67130827 46.24318685 -68.59261665 46.23640538 -70.51392555 46.22977352 C-72.14016749 46.22386411 -73.76640744 46.21738257 -75.39264488 46.21034336 C-78.74720033 46.19639205 -82.10083735 46.18574265 -85.4553833 46.20724487 C-98.96737526 46.29091411 -98.96737526 46.29091411 -103.1340332 43.85791016 C-104.7532239 42.05491944 -105.75097798 40.45079656 -106.75 38.25 C-107.31589844 37.1671875 -107.88179687 36.084375 -108.46484375 34.96875 C-112.79109264 23.57951968 -112.79109264 23.57951968 -110.75 18.25 C-107.48038574 14.79355064 -104.2822064 13.48605629 -99.75 12.25 C-98.96054489 12.02651886 -98.17108978 11.80303772 -97.35771179 11.57278442 C-88.84945475 9.28573819 -80.31702952 8.18903463 -71.58203125 7.2421875 C-70.05124588 7.07021599 -68.52054139 6.8975231 -66.98991394 6.72415161 C-62.99447758 6.27352852 -58.99803295 5.83258537 -55.00128174 5.39379883 C-50.94615326 4.94684871 -46.89207308 4.49059347 -42.83789062 4.03515625 C-35.61679545 3.22527151 -28.39491164 2.42286952 -21.17208862 1.62854004 C-18.29417414 1.31019473 -15.417449 0.98305911 -12.54077148 0.65380859 C-8.3446282 0.20681813 -4.21612371 0.03049637 0 0 Z " fill="#E3FD03" transform="translate(997.75,6.75)"/>
<path d="M0 0 C10.22941822 5.64336121 20.76801481 13.80355409 27 23.8125 C29.79936961 34.82335381 27.56720454 45.31949754 22.5 55.34375 C18.86964693 61.41760995 14.43491869 66.50252526 9.40600586 71.44165039 C6.71335371 74.04093789 6.71335371 74.04093789 5.8828125 77.53125 C7.27454779 80.12915587 8.93847711 82.28690078 10.8125 84.5625 C11.51117187 85.41972656 12.20984375 86.27695313 12.9296875 87.16015625 C13.92355469 88.31837891 13.92355469 88.31837891 14.9375 89.5 C15.67806641 90.39912109 15.67806641 90.39912109 16.43359375 91.31640625 C17.8802864 92.67615471 17.8802864 92.67615471 19.91796875 92.6796875 C23.84060884 92.13815489 27.32933891 91.45364263 31 89.9375 C35.19519188 88.2342521 38.42196432 88.04079298 42.9375 88.5 C45.04324676 90.04230432 45.8376833 90.88284067 46.2578125 93.48046875 C45.73964029 99.33581468 43.931805 102.40816759 39.82421875 106.578125 C37.68281111 108.75943464 35.81789217 111.09243387 33.9375 113.5 C34.57558594 114.42941406 35.21367188 115.35882813 35.87109375 116.31640625 C36.70639197 117.56466089 37.54099043 118.81338399 38.375 120.0625 C38.79587891 120.67158203 39.21675781 121.28066406 39.65039062 121.90820312 C42.40654351 126.07550629 43.70106406 129.38551734 43.9375 134.5 C42.59493082 138.05385959 41.58907261 139.1742137 38.1875 140.875 C33.60048543 141.75711819 30.08819257 141.76661341 25.9609375 139.3359375 C21.16190968 135.87100235 16.99924434 131.79021746 12.9375 127.5 C8.82025998 128.7733732 5.16799577 130.33870463 1.375 132.375 C-11.02554958 138.59050888 -24.0463718 142.09654905 -37.86328125 138.83984375 C-44.97966957 136.00066292 -51.77022956 130.4701221 -55.0625 123.5 C-55.3814534 120.85067538 -55.53983023 118.5157127 -55.5 115.875 C-55.49170166 115.16569336 -55.48340332 114.45638672 -55.47485352 113.72558594 C-55.01068286 99.14302878 -46.2947553 86.94043948 -37.46875 75.875 C-35.87574806 73.68344769 -35.87574806 73.68344769 -36.16015625 71.578125 C-37.37970065 68.7694773 -38.66454736 66.00579958 -40 63.25 C-45.50594795 51.32704795 -47.37445428 38.8740054 -43.4375 26.0625 C-39.2201557 15.23457796 -31.0700657 4.05039637 -20.5390625 -1.28515625 C-13.15556785 -3.86523135 -7.06552019 -3.3329639 0 0 Z M-16.0625 26.5 C-19.29946496 32.09698323 -19.9390638 38.16396821 -19.0625 44.5 C-17.60269847 49.54490236 -16.04685393 53.94947257 -12.0625 57.5 C-12.0625 56.84 -12.0625 56.18 -12.0625 55.5 C-11.48628906 55.25765625 -10.91007813 55.0153125 -10.31640625 54.765625 C-4.5435018 51.52399408 0.82313678 44.71094195 2.9375 38.5 C3.56930216 34.94611287 3.74181326 31.94904056 1.953125 28.7265625 C-1.07660471 24.89264527 -3.72877967 22.8590339 -8.5 22.125 C-12.1300349 22.65622462 -13.53778742 23.84240781 -16.0625 26.5 Z M-18.0625 94.5 C-24.27181201 101.05849093 -27.14650438 109.70644206 -28.0625 118.5 C-26.08276377 119.76273159 -26.08276377 119.76273159 -23.84765625 118.93359375 C-16.98723201 116.42368244 -10.09948359 113.67687979 -4.0625 109.5 C-3.7325 108.51 -3.4025 107.52 -3.0625 106.5 C-4.35475796 104.49498385 -4.35475796 104.49498385 -6.25 102.5625 C-6.8996875 101.86253906 -7.549375 101.16257812 -8.21875 100.44140625 C-8.8271875 99.80074219 -9.435625 99.16007812 -10.0625 98.5 C-10.784375 97.675 -11.50625 96.85 -12.25 96 C-14.183981 94.07495486 -14.183981 94.07495486 -18.0625 94.5 Z " fill="#E4FD05" transform="translate(534.0625,38.5)"/>
<path d="M0 0 C0.82638376 2.89234315 1 4.88742431 1 8 C-0.32 8.33 -1.64 8.66 -3 9 C-3 11.97 -3 14.94 -3 18 C-3.66 18 -4.32 18 -5 18 C-4.67 18.66 -4.34 19.32 -4 20 C-3.42698959 29.38906355 -4.35266427 38.7813733 -5.22680664 48.12255859 C-5.43912726 50.39239646 -5.64310786 52.66286901 -5.84570312 54.93359375 C-6.42400022 61.31499803 -7.04996683 67.66268979 -8 74 C-7.34 74.33 -6.68 74.66 -6 75 C-6.66 75 -7.32 75 -8 75 C-7.96519531 75.75925781 -7.93039062 76.51851563 -7.89453125 77.30078125 C-7.86746094 78.29464844 -7.84039063 79.28851563 -7.8125 80.3125 C-7.76029297 81.79169922 -7.76029297 81.79169922 -7.70703125 83.30078125 C-8.04741039 86.43680776 -8.73800691 86.9675979 -11 89 C-11.24953568 80.72674688 -10.45548412 72.65543728 -9.5625 64.4375 C-8.54058534 54.74952479 -7.66767441 45.08592774 -7.1796875 35.35546875 C-6.98060773 31.63787048 -6.65758173 27.95251197 -6.23828125 24.25390625 C-6.07209908 22.68198634 -5.94770492 21.10533019 -5.85546875 19.52734375 C-5.37883615 12.3556858 -3.2007776 6.40155519 0 0 Z " fill="#DDEE1D" transform="translate(652,20)"/>
<path d="M0 0 C0.66 0 1.32 0 2 0 C2 6.27 2 12.54 2 19 C2.99 19 3.98 19 5 19 C5 18.01 5 17.02 5 16 C6.32 16 7.64 16 9 16 C9.33 17.65 9.66 19.3 10 21 C11.94999129 20.80528889 11.94999129 20.80528889 14 20 C15.28436734 18.0162233 15.28436734 18.0162233 16 16 C16.66 16 17.32 16 18 16 C18.66 17.32 19.32 18.64 20 20 C21.32 19.01 22.64 18.02 24 17 C25.32 17.66 26.64 18.32 28 19 C27 21.4375 27 21.4375 25 24 C18.20059299 25.94268772 12.564708 24.22748687 6 22 C5.0925 21.69964844 4.185 21.39929688 3.25 21.08984375 C1 20 1 20 -0.3125 16.875 C-1.33876392 11.09060336 -1.43907296 5.75629186 0 0 Z " fill="#E5FC05" transform="translate(749,216)"/>
<path d="M0 0 C0.33 0 0.66 0 1 0 C0.99777939 0.73614029 0.99555878 1.47228058 0.99327087 2.23072815 C0.97318204 9.18927985 0.95798217 16.14782719 0.94818783 23.10640049 C0.9429831 26.68333238 0.9359295 30.26024018 0.92456055 33.8371582 C0.91364567 37.29308749 0.90770503 40.74899369 0.90512276 44.20493889 C0.90239287 46.15629208 0.89459461 48.10763607 0.88670349 50.05897522 C0.88634106 55.82061059 0.9876999 61.32558345 2 67 C2.06056151 68.64485066 2.08781955 70.29172957 2.0625 71.9375 C2.05347656 72.70964844 2.04445312 73.48179687 2.03515625 74.27734375 C2.02355469 74.84582031 2.01195312 75.41429687 2 76 C-0.07141269 72.49252388 -0.58636685 69.20159943 -1.125 65.1875 C-1.37636719 63.41439453 -1.37636719 63.41439453 -1.6328125 61.60546875 C-2.98634012 47.86525706 -1.69924649 33.81395646 -1 20.0625 C-0.90330955 18.10743848 -0.80695318 16.1523604 -0.7109375 14.19726562 C-0.47780068 9.46464453 -0.24017455 4.73226894 0 0 Z " fill="#DCEA23" transform="translate(162,102)"/>
<path d="M0 0 C7.26043724 -0.28449989 12.80418887 0.04818725 18.5 4.875 C23.79567712 10.28280057 27.84595347 16.61994377 28.1171875 24.33203125 C28.07851563 25.21246094 28.03984375 26.09289062 28 27 C25 23 25 23 22 19 C22.66 18.67 23.32 18.34 24 18 C23.505 17.236875 23.01 16.47375 22.5 15.6875 C21 13 21 13 21 10 C20.01 10 19.02 10 18 10 C17.67 9.01 17.34 8.02 17 7 C16.01 7.33 15.02 7.66 14 8 C13.67 6.68 13.34 5.36 13 4 C10.03 4 7.06 4 4 4 C4.33 3.01 4.66 2.02 5 1 C3.35 1 1.7 1 0 1 C0 0.67 0 0.34 0 0 Z " fill="#E5F72E" transform="translate(718,19)"/>
<path d="M0 0 C2.01797888 0.61008664 4.01548229 1.28856912 6 2 C7.3303125 2.4640625 7.3303125 2.4640625 8.6875 2.9375 C13.06401966 6.8408824 13.66930817 12.7860888 14.25 18.4296875 C14.50144777 28.26758134 13.02336282 38.22770157 12 48 C11.67 48 11.34 48 11 48 C11 40.74 11 33.48 11 26 C11.66 26 12.32 26 13 26 C13 23.03 13 20.06 13 17 C12.34 17 11.68 17 11 17 C10.34 13.7 9.68 10.4 9 7 C7.68 7 6.36 7 5 7 C4.67 5.68 4.34 4.36 4 3 C2.68 2.67 1.36 2.34 0 2 C0 1.34 0 0.68 0 0 Z " fill="#E7F53A" transform="translate(196,13)"/>
<path d="M0 0 C0.66 0 1.32 0 2 0 C2 0.66 2 1.32 2 2 C2.66 2.33 3.32 2.66 4 3 C3.01 3.66 2.02 4.32 1 5 C-0.90237427 10.131234 -1.38770161 15.03401781 -1.625 20.4375 C-1.66367187 21.16904297 -1.70234375 21.90058594 -1.7421875 22.65429688 C-1.83533984 24.43583532 -1.91870286 26.21788122 -2 28 C-1.01 28.33 -0.02 28.66 1 29 C1.33 30.65 1.66 32.3 2 34 C-2.42021691 29.69312198 -4.12681143 27.91900251 -4.29101562 21.69140625 C-4.37157705 13.70850104 -3.48220347 7.33750016 0 0 Z " fill="#E3F432" transform="translate(483,135)"/>
<path d="M0 0 C0.82638376 2.89234315 1 4.88742431 1 8 C-0.32 8.33 -1.64 8.66 -3 9 C-3 11.97 -3 14.94 -3 18 C-3.66 18 -4.32 18 -5 18 C-4.67 18.66 -4.34 19.32 -4 20 C-3.92907158 22.2072923 -3.91584975 24.41667452 -3.9375 26.625 C-3.94652344 27.81351563 -3.95554687 29.00203125 -3.96484375 30.2265625 C-3.97644531 31.14179687 -3.98804688 32.05703125 -4 33 C-4.66 33 -5.32 33 -6 33 C-6 36.3 -6 39.6 -6 43 C-6.33 43 -6.66 43 -7 43 C-7.10666768 36.76586681 -6.99776588 30.66078787 -6.2734375 24.46484375 C-6.09045067 22.81534814 -5.95008226 21.16059385 -5.8515625 19.50390625 C-5.38228392 12.34182132 -3.19569636 6.39139271 0 0 Z " fill="#E7F537" transform="translate(652,20)"/>
<path d="M0 0 C0.33 0 0.66 0 1 0 C1.18836136 9.14599033 0.67006606 18.04096426 -0.375 27.125 C-0.50132812 28.32898438 -0.62765625 29.53296875 -0.7578125 30.7734375 C-0.95117188 32.49820313 -0.95117188 32.49820313 -1.1484375 34.2578125 C-1.26364746 35.2905127 -1.37885742 36.32321289 -1.49755859 37.38720703 C-2 40 -2 40 -4 43 C-4.19412181 41.52168779 -4.38012131 40.04230684 -4.5625 38.5625 C-4.71912109 37.32693359 -4.71912109 37.32693359 -4.87890625 36.06640625 C-4.91886719 35.38449219 -4.95882812 34.70257813 -5 34 C-4.505 33.505 -4.505 33.505 -4 33 C-3.71220266 30.99069241 -3.48407493 28.97278001 -3.28125 26.953125 C-3.15363281 25.715625 -3.02601563 24.478125 -2.89453125 23.203125 C-2.69923828 21.24632812 -2.69923828 21.24632812 -2.5 19.25 C-2.24169194 16.69249449 -1.98135346 14.13519303 -1.71875 11.578125 C-1.54762695 9.86737793 -1.54762695 9.86737793 -1.37304688 8.12207031 C-1.04420144 5.36992668 -0.5896499 2.70656894 0 0 Z " fill="#DCEC2E" transform="translate(679,57)"/>
<path d="M0 0 C0.66 0 1.32 0 2 0 C2 6.27 2 12.54 2 19 C2.99 19 3.98 19 5 19 C5 18.01 5 17.02 5 16 C6.32 16 7.64 16 9 16 C9.33 17.65 9.66 19.3 10 21 C10.99 21.33 11.98 21.66 13 22 C9.01137265 23.28780793 6.58065071 22.70064834 2.7734375 21.13671875 C1 20 1 20 -0.5 16.8125 C-1.25560686 11.05099771 -1.42460304 5.69841218 0 0 Z " fill="#E4F626" transform="translate(749,216)"/>
<path d="M0 0 C0.33 0 0.66 0 1 0 C1.03758423 1.01368652 1.03758423 1.01368652 1.07592773 2.04785156 C1.19210742 5.1154168 1.31473437 8.18269158 1.4375 11.25 C1.47681641 12.31347656 1.51613281 13.37695312 1.55664062 14.47265625 C1.59853516 15.49746094 1.64042969 16.52226563 1.68359375 17.578125 C1.72025146 18.52075195 1.75690918 19.46337891 1.79467773 20.43457031 C1.91740842 22.96841714 1.91740842 22.96841714 2.60693359 25.21875 C2.73664551 25.8065625 2.86635742 26.394375 3 27 C2.02118165 28.34895975 1.01893805 29.68108263 0 31 C-0.56984448 33.57873609 -0.56984448 33.57873609 -0.6875 36.25 C-0.75324219 37.14203125 -0.81898437 38.0340625 -0.88671875 38.953125 C-0.92410156 39.62859375 -0.96148438 40.3040625 -1 41 C-1.33 41 -1.66 41 -2 41 C-2.14109129 31.67719719 -1.72274221 22.48059748 -1 13.1875 C-0.85691406 11.27227539 -0.85691406 11.27227539 -0.7109375 9.31835938 C-0.47824311 6.21188922 -0.24120375 3.10581899 0 0 Z " fill="#EEFA3E" transform="translate(26,25)"/>
<path d="M0 0 C0.33 0.66 0.66 1.32 1 2 C0.0409375 2.556875 0.0409375 2.556875 -0.9375 3.125 C-3.63858072 5.58052793 -3.68407005 7.44578805 -4 11 C-3.34 11 -2.68 11 -2 11 C-0.41744803 15.32564205 0.45144652 19.428721 1 24 C1.66 24 2.32 24 3 24 C3.66 25.32 4.32 26.64 5 28 C4.01 28 3.02 28 2 28 C-1.94781317 21.51430694 -5.93766615 14.86469852 -6.0625 7.125 C-4.79122001 3.3859412 -3.28299921 2.10448667 0 0 Z " fill="#E4F42D" transform="translate(892,21)"/>
<path d="M0 0 C0.66 0.33 1.32 0.66 2 1 C1.67 1.99 1.34 2.98 1 4 C-4.84283922 6.37192391 -10.57587719 6.30164905 -16.8125 6.25 C-17.76576172 6.25773438 -18.71902344 6.26546875 -19.70117188 6.2734375 C-20.61060547 6.27085937 -21.52003906 6.26828125 -22.45703125 6.265625 C-23.28178955 6.26336914 -24.10654785 6.26111328 -24.95629883 6.25878906 C-27 6 -27 6 -29 4 C-21.08 4 -13.16 4 -5 4 C-5 3.34 -5 2.68 -5 2 C-2.525 2.495 -2.525 2.495 0 3 C0 2.01 0 1.02 0 0 Z " fill="#E4F636" transform="translate(421,215)"/>
<path d="M0 0 C5.78000129 -0.07475627 11.55971446 -0.12888603 17.34008789 -0.16479492 C19.3020519 -0.17978159 21.26398298 -0.20017793 23.22583008 -0.22631836 C44.14939522 -0.49791465 44.14939522 -0.49791465 53 3 C51.02 3.99 51.02 3.99 49 5 C49 4.34 49 3.68 49 3 C47.700625 3.020625 46.40125 3.04125 45.0625 3.0625 C43.70834367 3.08399454 42.35243917 3.07148199 41 3 C40.505 2.505 40.505 2.505 40 2 C37.04470496 1.83970312 34.11017543 1.74042672 31.15234375 1.68359375 C29.82270348 1.6524221 29.82270348 1.6524221 28.46620178 1.62062073 C25.623383 1.555026 22.78046883 1.49619448 19.9375 1.4375 C18.01496394 1.3943242 16.09243766 1.35071022 14.16992188 1.30664062 C9.44671332 1.19933457 4.72340847 1.09809549 0 1 C0 0.67 0 0.34 0 0 Z " fill="#EEFA4B" transform="translate(682,98)"/>
<path d="M0 0 C0.33 0 0.66 0 1 0 C1.36716379 4.28357759 0.45701181 6.50348319 -2 10 C-2.66 10.66 -3.32 11.32 -4 12 C-4.495 12.70125 -4.99 13.4025 -5.5 14.125 C-5.995 14.74375 -6.49 15.3625 -7 16 C-7.66 16 -8.32 16 -9 16 C-9.061875 16.61875 -9.12375 17.2375 -9.1875 17.875 C-10 20 -10 20 -12.375 21.25 C-15 22 -15 22 -18 22 C-17.49210937 21.5875 -16.98421875 21.175 -16.4609375 20.75 C-9.31427074 14.75429456 -4.42365844 8.16675405 0 0 Z " fill="#E2F52E" transform="translate(106,68)"/>
<path d="M0 0 C0.33 0 0.66 0 1 0 C1 2.64 1 5.28 1 8 C0.34 8 -0.32 8 -1 8 C-1 10.97 -1 13.94 -1 17 C-1.33 17 -1.66 17 -2 17 C-4.04439154 22.55211209 -4.04439154 22.55211209 -3 28 C-4.65 28.66 -6.3 29.32 -8 30 C-7.38221256 25.78265512 -6.42523032 21.8694202 -5.125 17.8125 C-3.2664038 11.91111789 -1.58211561 5.98087645 0 0 Z " fill="#E5F630" transform="translate(784,74)"/>
<path d="M0 0 C0.33 0 0.66 0 1 0 C1 1.98 1 3.96 1 6 C0.34 6 -0.32 6 -1 6 C-0.938125 6.804375 -0.87625 7.60875 -0.8125 8.4375 C-1.017242 12.32759796 -2.02553356 15.24379517 -3.33203125 18.875 C-4.10187139 21.32408207 -4.24705181 23.44713128 -4 26 C-5.98 26.99 -5.98 26.99 -8 28 C-6.43618819 18.3043668 -3.20450331 9.25073597 0 0 Z " fill="#E4F52D" transform="translate(802,22)"/>
<path d="M0 0 C1.75 1.234375 1.75 1.234375 3 3 C3.14453125 5.19140625 3.14453125 5.19140625 2.8125 7.5625 C2.66748047 8.74005859 2.66748047 8.74005859 2.51953125 9.94140625 C2 12 2 12 0 14 C-0.75698611 10.29917903 -1.16166616 7.61407249 0 4 C0 3.34 0 2.68 0 2 C-5.28 2.66 -10.56 3.32 -16 4 C-11.58939851 -0.41060149 -5.8799968 -0.48196695 0 0 Z " fill="#EAF73D" transform="translate(577,127)"/>
<path d="M0 0 C8.68894993 -0.55200388 19.64962659 -0.03717566 27.3671875 4.34375 C30.14351743 7.15993156 30.24978509 10.18640752 31 14 C27.6777286 11.10640878 26.67915667 9.31085759 26 5 C24.85660156 4.86722656 23.71320313 4.73445312 22.53515625 4.59765625 C21.0442438 4.4194969 19.55335982 4.24109918 18.0625 4.0625 C17.30775391 3.97548828 16.55300781 3.88847656 15.77539062 3.79882812 C10.11328125 3.11328125 10.11328125 3.11328125 9 2 C7.48530552 1.76807135 5.96245438 1.58784762 4.4375 1.4375 C3.61121094 1.35371094 2.78492188 1.26992187 1.93359375 1.18359375 C1.29550781 1.12300781 0.65742188 1.06242188 0 1 C0 0.67 0 0.34 0 0 Z " fill="#EAF73A" transform="translate(394,6)"/>
<path d="M0 0 C0 0.33 0 0.66 0 1 C-0.99181274 1.03758423 -0.99181274 1.03758423 -2.00366211 1.07592773 C-4.98182305 1.19153102 -7.9596392 1.31441754 -10.9375 1.4375 C-12.49887695 1.49647461 -12.49887695 1.49647461 -14.09179688 1.55664062 C-15.57583008 1.61948242 -15.57583008 1.61948242 -17.08984375 1.68359375 C-18.00628662 1.72025146 -18.92272949 1.75690918 -19.86694336 1.79467773 C-21.9820728 1.77003864 -21.9820728 1.77003864 -23 3 C-24.41570123 3.08651611 -25.835595 3.10704904 -27.25390625 3.09765625 C-28.10791016 3.09443359 -28.96191406 3.09121094 -29.84179688 3.08789062 C-30.73962891 3.07951172 -31.63746094 3.07113281 -32.5625 3.0625 C-33.46419922 3.05798828 -34.36589844 3.05347656 -35.29492188 3.04882812 C-37.53001314 3.03700225 -39.76497437 3.0205222 -42 3 C-42 2.67 -42 2.34 -42 2 C-27.96378382 0.01508054 -14.16254136 -0.23441945 0 0 Z " fill="#E6F13C" transform="translate(721,186)"/>
<path d="M0 0 C3.37462715 0.54723683 5.08235 1.0549 8 3 C7.67 6.63 7.34 10.26 7 14 C4.89284903 11.19046537 3.33410537 8.94153036 1.8125 5.875 C1.29623047 4.85019531 1.29623047 4.85019531 0.76953125 3.8046875 C0 2 0 2 0 0 Z " fill="#E8FB1C" transform="translate(358,161)"/>
<path d="M0 0 C8.25 0 16.5 0 25 0 C25 0.66 25 1.32 25 2 C21.94080612 3.01973129 19.87581975 3.11533602 16.67578125 3.09765625 C15.64775391 3.09443359 14.61972656 3.09121094 13.56054688 3.08789062 C12.48869141 3.07951172 11.41683594 3.07113281 10.3125 3.0625 C9.22904297 3.05798828 8.14558594 3.05347656 7.02929688 3.04882812 C4.35280915 3.03703743 1.67643223 3.02058063 -1 3 C-0.67 2.01 -0.34 1.02 0 0 Z " fill="#DBEF2C" transform="translate(803,140)"/>
<path d="M0 0 C0.99 0 1.98 0 3 0 C4.02028865 1.31787285 5.01971384 2.65210653 6 4 C6.99 4.33 7.98 4.66 9 5 C9.33 4.34 9.66 3.68 10 3 C10 3.66 10 4.32 10 5 C11.32 4.67 12.64 4.34 14 4 C14.33 6.31 14.66 8.62 15 11 C15.99 11 16.98 11 18 11 C18 11.66 18 12.32 18 13 C14.23346605 11.63648771 11.15351373 9.92096222 7.875 7.625 C7.02679688 7.03976563 6.17859375 6.45453125 5.3046875 5.8515625 C3.08359181 4.06715681 1.58513065 2.35179515 0 0 Z " fill="#E4F719" transform="translate(174,198)"/>
<path d="M0 0 C0.66 0.99 1.32 1.98 2 3 C1.34 3 0.68 3 0 3 C0.12375 4.2375 0.12375 4.2375 0.25 5.5 C0.01055423 8.85224073 -0.39100731 10.04999891 -1.9375 12.875 C-4.1698418 16.9610532 -4.66974151 20.37638108 -5 25 C-5.99 24.67 -6.98 24.34 -8 24 C-7.45026573 18.16971962 -5.7546141 13.41709832 -3.4375 8.0625 C-3.10814453 7.28326172 -2.77878906 6.50402344 -2.43945312 5.70117188 C-1.63366651 3.79764697 -0.81785783 1.89836975 0 0 Z " fill="#DFF120" transform="translate(793,50)"/>
<path d="M0 0 C0.99 0.33 1.98 0.66 3 1 C1.125 6.875 1.125 6.875 0 8 C-7.55255086 8.63755299 -14.02242721 7.9601824 -21 5 C-16.78080897 3.74819721 -13.03911435 4.32747579 -8.75 4.9375 C-8.00492187 5.03740234 -7.25984375 5.13730469 -6.4921875 5.24023438 C-4.66054558 5.48680156 -2.83013749 5.74250391 -1 6 C-1 5.34 -1 4.68 -1 4 C-0.67 3.67 -0.34 3.34 0 3 C0 2.01 0 1.02 0 0 Z " fill="#E4F638" transform="translate(338,233)"/>
<path d="M0 0 C0.99 0.66 1.98 1.32 3 2 C2.93941406 2.70382813 2.87882813 3.40765625 2.81640625 4.1328125 C2.14169719 12.08399921 1.55346597 20.03951074 1 28 C0.67 28 0.34 28 0 28 C-0.33 22.72 -0.66 17.44 -1 12 C-1.66 12 -2.32 12 -3 12 C-2.67 10.68 -2.34 9.36 -2 8 C-0.68 7.67 0.64 7.34 2 7 C1.34 6.34 0.68 5.68 0 5 C-0.125 2.375 -0.125 2.375 0 0 Z " fill="#E0F324" transform="translate(669,160)"/>
<path d="M0 0 C2.97 0.33 5.94 0.66 9 1 C9 1.66 9 2.32 9 3 C13.62 3 18.24 3 23 3 C23 2.34 23 1.68 23 1 C26.63 0.67 30.26 0.34 34 0 C28.20471375 3.86352417 22.25716999 4.3427199 15.5 4.3125 C14.77941406 4.32861328 14.05882812 4.34472656 13.31640625 4.36132812 C8.16403131 4.36598669 4.61042471 3.29914601 0 1 C0 0.67 0 0.34 0 0 Z " fill="#EAF73C" transform="translate(492,174)"/>
<path d="M0 0 C0.33 0 0.66 0 1 0 C2.43126901 5.70611882 1.51664858 10.68259015 0.5625 16.375 C0.41490234 17.30183594 0.26730469 18.22867188 0.11523438 19.18359375 C-0.24807901 21.45723235 -0.6200297 23.72909619 -1 26 C-3.2300095 22.0057494 -3.09987295 19.26807348 -2.75 14.6875 C-2.61851562 12.77517578 -2.61851562 12.77517578 -2.484375 10.82421875 C-1.99820249 6.98580837 -1.16048541 3.67645584 0 0 Z " fill="#E0F22E" transform="translate(169,36)"/>
<path d="M0 0 C9.55052847 -0.72843014 17.90161486 1.4428629 27 4 C27 4.33 27 4.66 27 5 C23.75 5.6875 23.75 5.6875 20 6 C19.14921875 5.2884375 19.14921875 5.2884375 18.28125 4.5625 C14.97762059 2.29974013 11.62729156 2.43238092 7.75 2.3125 C6.63238281 2.26125977 6.63238281 2.26125977 5.4921875 2.20898438 C3.66197508 2.12685946 1.83101331 2.06174347 0 2 C0 1.34 0 0.68 0 0 Z " fill="#E3F634" transform="translate(246,8)"/>
<path d="M0 0 C0.66 0.33 1.32 0.66 2 1 C1.34 2.32 0.68 3.64 0 5 C-0.99 5 -1.98 5 -3 5 C-3.20625 5.928125 -3.4125 6.85625 -3.625 7.8125 C-5 11 -5 11 -8 12.8125 C-8.99 13.204375 -9.98 13.59625 -11 14 C-11.99 14.495 -11.99 14.495 -13 15 C-11.38989473 10.92623969 -8.46177729 8.23492931 -5.375 5.25 C-4.859375 4.74339844 -4.34375 4.23679687 -3.8125 3.71484375 C-2.54616661 2.47196098 -1.2736856 1.23534724 0 0 Z " fill="#E5F537" transform="translate(510,39)"/>
<path d="M0 0 C0.33 0 0.66 0 1 0 C1.02505615 0.80743652 1.0501123 1.61487305 1.07592773 2.44677734 C1.19165487 6.08968917 1.31448635 9.73232726 1.4375 13.375 C1.47681641 14.64601562 1.51613281 15.91703125 1.55664062 17.2265625 C1.59853516 18.43828125 1.64042969 19.65 1.68359375 20.8984375 C1.72025146 22.01911621 1.75690918 23.13979492 1.79467773 24.29443359 C1.82596013 26.96712771 1.82596013 26.96712771 3 29 C2.67 29.66 2.34 30.32 2 31 C2.99 31.33 3.98 31.66 5 32 C5.6875 34.0625 5.6875 34.0625 6 36 C3 35 3 35 1.32421875 32.33984375 C-1.00515803 26.39408292 -0.31095466 19.83336346 -0.1875 13.5625 C-0.17396484 12.25861328 -0.16042969 10.95472656 -0.14648438 9.61132812 C-0.11127334 6.40712378 -0.06202094 3.20377895 0 0 Z " fill="#F2FD4B" transform="translate(24,178)"/>
<path d="M0 0 C0.33 0.66 0.66 1.32 1 2 C1.66 2 2.32 2 3 2 C2 5 2 5 1.0078125 7.26171875 C-0.16208686 10.4403988 -0.65106362 13.46109277 -1.125 16.8125 C-1.29257812 17.97394531 -1.46015625 19.13539063 -1.6328125 20.33203125 C-1.75398437 21.21246094 -1.87515625 22.09289062 -2 23 C-2.66 23 -3.32 23 -4 23 C-4.29434812 15.0526007 -3.39977151 7.28522467 0 0 Z " fill="#E0F330" transform="translate(753,189)"/>
<path d="M0 0 C2.64 0 5.28 0 8 0 C8 0.66 8 1.32 8 2 C8.90363281 1.97679687 9.80726562 1.95359375 10.73828125 1.9296875 C11.91777344 1.91164062 13.09726562 1.89359375 14.3125 1.875 C16.07013672 1.84019531 16.07013672 1.84019531 17.86328125 1.8046875 C21 2 21 2 24 4 C23 5 23 5 19.3125 5.3125 C12.60936005 5.27996049 6.32749906 3.01615902 0 1 C0 0.67 0 0.34 0 0 Z " fill="#E8F733" transform="translate(32,215)"/>
<path d="M0 0 C0.33 0 0.66 0 1 0 C1.10251672 5.12583611 1.03590199 9.94997778 0 15 C-1.32 14.67 -2.64 14.34 -4 14 C-4.33 12.02 -4.66 10.04 -5 8 C-4.34 8 -3.68 8 -3 8 C-1.7095826 5.41916521 -0.89351752 2.74012041 0 0 Z " fill="#DEF111" transform="translate(342,219)"/>
<path d="M0 0 C1.65 0.33 3.3 0.66 5 1 C4 3.9375 4 3.9375 2 7 C-0.66859823 8.00284902 -3.16734891 8.26097361 -6 8 C-7.32 7.34 -8.64 6.68 -10 6 C-7.03 6 -4.06 6 -1 6 C-0.67 4.02 -0.34 2.04 0 0 Z " fill="#E7F72B" transform="translate(772,233)"/>
<path d="M0 0 C0.33 0 0.66 0 1 0 C1.433125 1.6396875 1.433125 1.6396875 1.875 3.3125 C2.81893204 7.04013845 2.81893204 7.04013845 5 10 C4.01 10.33 3.02 10.66 2 11 C1.67 11.99 1.34 12.98 1 14 C-1 13 -1 13 -1.75 10.9375 C-2.09214294 6.91732042 -1.11562824 3.87188624 0 0 Z " fill="#E6F91B" transform="translate(755,178)"/>
<path d="M0 0 C0.66 0.33 1.32 0.66 2 1 C1.57476184 2.60746056 1.13429874 4.21089836 0.6875 5.8125 C0.44386719 6.70582031 0.20023437 7.59914062 -0.05078125 8.51953125 C-1 11 -1 11 -4 14 C-3.67 11.03 -3.34 8.06 -3 5 C-3.66 4.67 -4.32 4.34 -5 4 C-4.34 3.34 -3.68 2.68 -3 2 C-2.01 2 -1.02 2 0 2 C0 1.34 0 0.68 0 0 Z " fill="#E4F81E" transform="translate(271,176)"/>
<path d="M0 0 C0.66 0 1.32 0 2 0 C2.33 3.96 2.66 7.92 3 12 C3.66 12 4.32 12 5 12 C5 12.66 5 13.32 5 14 C3.35 14 1.7 14 0 14 C-0.33 14.66 -0.66 15.32 -1 16 C-0.67 10.72 -0.34 5.44 0 0 Z M0 10 C0.33 10.99 0.66 11.98 1 13 C1.33 12.01 1.66 11.02 2 10 C1.34 10 0.68 10 0 10 Z " fill="#E4F636" transform="translate(233,136)"/>
<path d="M0 0 C0.33 0 0.66 0 1 0 C1 3.63 1 7.26 1 11 C-0.98 11.99 -0.98 11.99 -3 13 C-3 12.34 -3 11.68 -3 11 C-2.34 11 -1.68 11 -1 11 C-1.66 9.35 -2.32 7.7 -3 6 C-3.66 6 -4.32 6 -5 6 C-5.33 5.01 -5.66 4.02 -6 3 C-4.02 3 -2.04 3 0 3 C0 2.01 0 1.02 0 0 Z " fill="#E4F61E" transform="translate(739,204)"/>
<path d="M0 0 C4 0 4 0 5.8125 1.5 C7.59731497 5.2575052 6.74289385 7.94785175 6 12 C3.25207517 8.59780735 0 4.51535412 0 0 Z " fill="#E1F821" transform="translate(351,147)"/>
<path d="M0 0 C0.33 0 0.66 0 1 0 C1.06058594 0.84304687 1.12117187 1.68609375 1.18359375 2.5546875 C1.26738281 3.65039062 1.35117188 4.74609375 1.4375 5.875 C1.51871094 6.96554688 1.59992188 8.05609375 1.68359375 9.1796875 C1.83001703 11.94728971 1.83001703 11.94728971 3 14 C2.34 14 1.68 14 1 14 C1.33 14.99 1.66 15.98 2 17 C0.02 17.99 0.02 17.99 -2 19 C-2.21432579 12.35590042 -1.51233701 6.46794133 0 0 Z " fill="#E8FB33" transform="translate(170,17)"/>
<path d="M0 0 C0.33 0 0.66 0 1 0 C1 2.64 1 5.28 1 8 C0.34 8 -0.32 8 -1 8 C-1 14.93 -1 21.86 -1 29 C-1.33 29 -1.66 29 -2 29 C-2.05837668 25.29173349 -2.09372277 21.5835863 -2.125 17.875 C-2.15013672 16.30492187 -2.15013672 16.30492187 -2.17578125 14.703125 C-2.20929909 9.40730664 -2.17213685 4.9428941 0 0 Z " fill="#EAF541" transform="translate(240,13)"/>
<path d="M0 0 C0.66 0 1.32 0 2 0 C2 0.66 2 1.32 2 2 C2.99 2.33 3.98 2.66 5 3 C4.319375 3.53625 3.63875 4.0725 2.9375 4.625 C0.61740673 6.91162152 0.61740673 6.91162152 1.25 10.25 C1.4975 11.1575 1.745 12.065 2 13 C0.68 12.34 -0.64 11.68 -2 11 C-1.85957123 9.35369672 -1.71250671 7.70795821 -1.5625 6.0625 C-1.48128906 5.14597656 -1.40007813 4.22945313 -1.31640625 3.28515625 C-1 1 -1 1 0 0 Z " fill="#E6FA27" transform="translate(539,107)"/>
<path d="M0 0 C0 0.66 0 1.32 0 2 C-0.96099609 2.18175781 -0.96099609 2.18175781 -1.94140625 2.3671875 C-7.04928933 3.35679227 -12.02250269 4.48510951 -17 6 C-17 5.01 -17 4.02 -17 3 C-14.73194205 2.30190555 -12.46133393 1.61628983 -10.1875 0.9375 C-9.54490234 0.73833984 -8.90230469 0.53917969 -8.24023438 0.33398438 C-3.33984375 -1.11328125 -3.33984375 -1.11328125 0 0 Z " fill="#DFF329" transform="translate(912,17)"/>
<path d="M0 0 C0.66 0 1.32 0 2 0 C1.71572583 1.58467728 1.42225182 3.1677057 1.125 4.75 C0.96257813 5.63171875 0.80015625 6.5134375 0.6328125 7.421875 C0 10 0 10 -2 14 C-2.66 10.7 -3.32 7.4 -4 4 C-2.68 3.67 -1.36 3.34 0 3 C0 2.01 0 1.02 0 0 Z " fill="#E4F824" transform="translate(789,184)"/>
<path d="M0 0 C0.66 0 1.32 0 2 0 C3 4.75 3 4.75 3 7 C3.32205743 9.33491639 3.65458149 11.66842508 4 14 C1.25207517 10.59780735 -2 6.51535412 -2 2 C-1.34 2 -0.68 2 0 2 C0 1.34 0 0.68 0 0 Z " fill="#E1F722" transform="translate(373,186)"/>
<path d="M0 0 C0.99 0.33 1.98 0.66 3 1 C4.1875 3.5625 4.1875 3.5625 5 6 C4.34 6 3.68 6 3 6 C2.67 7.32 2.34 8.64 2 10 C0.5 8.875 0.5 8.875 -1 7 C-1.25 3.875 -1.25 3.875 -1 1 C-0.67 0.67 -0.34 0.34 0 0 Z " fill="#E2FA14" transform="translate(90,177)"/>
<path d="M0 0 C2.06593758 0.39927344 4.12769527 0.82020723 6.1875 1.25 C7.33605469 1.48203125 8.48460937 1.7140625 9.66796875 1.953125 C13.21944278 3.06894568 15.2694675 4.51115305 18 7 C17.67 7.66 17.34 8.32 17 9 C15.35 8.67 13.7 8.34 12 8 C11.67 7.01 11.34 6.02 11 5 C8.43957934 3.96961044 8.43957934 3.96961044 5.4375 3.3125 C3.91962891 2.93544922 3.91962891 2.93544922 2.37109375 2.55078125 C1.19740234 2.27814453 1.19740234 2.27814453 0 2 C0 1.34 0 0.68 0 0 Z " fill="#E7F939" transform="translate(327,23)"/>
<path d="M0 0 C0 0.99 0 1.98 0 3 C-12.66970387 3.18451025 -12.66970387 3.18451025 -18 2 C-18 1.67 -18 1.34 -18 1 C-11.93303301 0.22959149 -6.11485027 -0.09706112 0 0 Z " fill="#EAF82A" transform="translate(980,9)"/>
<path d="M0 0 C1.7015625 0.2475 1.7015625 0.2475 3.4375 0.5 C7.97060294 1.07576084 12.43747238 1.09505266 17 1 C16.67 1.99 16.34 2.98 16 4 C14.08268082 3.88544319 12.1661325 3.75793742 10.25 3.625 C9.18265625 3.55539063 8.1153125 3.48578125 7.015625 3.4140625 C4.19793568 3.0271777 2.4169634 2.44313834 0 1 C0 0.67 0 0.34 0 0 Z " fill="#E1F330" transform="translate(651,224)"/>
<path d="M0 0 C0.99 0.495 0.99 0.495 2 1 C2 1.66 2 2.32 2 3 C2.99 2.67 3.98 2.34 5 2 C4.690625 2.825 4.38125 3.65 4.0625 4.5 C2.88122417 8.39126155 2.41775832 11.96166953 2 16 C1.67 16 1.34 16 1 16 C0.67 10.72 0.34 5.44 0 0 Z " fill="#E5F823" transform="translate(826,119)"/>
<path d="M0 0 C0.33 0.99 0.66 1.98 1 3 C-0.36328125 5.62890625 -0.36328125 5.62890625 -2.3125 8.5625 C-2.94800781 9.53316406 -3.58351562 10.50382812 -4.23828125 11.50390625 C-6 14 -6 14 -8 16 C-7.4140625 9.84765625 -7.4140625 9.84765625 -7 8 C-6.34 7.67 -5.68 7.34 -5 7 C-5 6.34 -5 5.68 -5 5 C-4.01 5 -3.02 5 -2 5 C-2 4.01 -2 3.02 -2 2 C-1.34 2 -0.68 2 0 2 C0 1.34 0 0.68 0 0 Z " fill="#E7F636" transform="translate(145,83)"/>
<path d="M0 0 C2.125 2.6875 2.125 2.6875 2.125 4.6875 C-1.91756383 3.46532954 -5.36788959 2.05995704 -8.875 -0.3125 C-8.875 -0.6425 -8.875 -0.9725 -8.875 -1.3125 C-4.6792693 -2.58097672 -3.51798673 -2.82968498 0 0 Z " fill="#E4F927" transform="translate(200.875,212.3125)"/>
<path d="M0 0 C0 0.66 0 1.32 0 2 C-0.99 2 -1.98 2 -3 2 C-3 2.99 -3 3.98 -3 5 C-5.75924185 6.80411967 -6.88972103 7.0127245 -10.25 6.625 C-11.1575 6.41875 -12.065 6.2125 -13 6 C-10.65890118 4.43926745 -8.43666597 3.13626133 -5.9375 1.875 C-5.24527344 1.52179688 -4.55304687 1.16859375 -3.83984375 0.8046875 C-2 0 -2 0 0 0 Z " fill="#EAF830" transform="translate(525,151)"/>
<path d="M0 0 C0.33 0 0.66 0 1 0 C0.67 2.97 0.34 5.94 0 9 C-0.99 8.67 -1.98 8.34 -3 8 C-3.2475 8.61875 -3.495 9.2375 -3.75 9.875 C-5.22047178 12.37480203 -6.41403076 12.83316022 -9 14 C-8.60167969 13.49210937 -8.20335937 12.98421875 -7.79296875 12.4609375 C-4.71433825 8.46096502 -2.08404386 4.63120857 0 0 Z " fill="#EAFA36" transform="translate(536,77)"/>
<path d="M0 0 C6.35987804 -0.20190089 11.85221129 0.3722167 18 2 C18 2.33 18 2.66 18 3 C12.06 3.495 12.06 3.495 6 4 C6 3.34 6 2.68 6 2 C3.03 1.505 3.03 1.505 0 1 C0 0.67 0 0.34 0 0 Z " fill="#E6F838" transform="translate(808,18)"/>
<path d="M0 0 C0.66 0 1.32 0 2 0 C2 1.98 2 3.96 2 6 C2.66 6 3.32 6 4 6 C4 6.66 4 7.32 4 8 C4.99 8.33 5.98 8.66 7 9 C6.67 10.65 6.34 12.3 6 14 C2.67016949 11.30442292 1.45548306 7.95059687 0 4 C0 2.68 0 1.36 0 0 Z " fill="#E7F735" transform="translate(841,208)"/>
<path d="M0 0 C0.33 1.32 0.66 2.64 1 4 C-0.32 4.33 -1.64 4.66 -3 5 C-3.33 6.32 -3.66 7.64 -4 9 C-4.33 8.67 -4.66 8.34 -5 8 C-5.33 8.66 -5.66 9.32 -6 10 C-7.32 9.67 -8.64 9.34 -10 9 C-9.44570312 8.51789063 -8.89140625 8.03578125 -8.3203125 7.5390625 C-7.59585938 6.90742188 -6.87140625 6.27578125 -6.125 5.625 C-5.40570313 4.99851563 -4.68640625 4.37203125 -3.9453125 3.7265625 C-2.5923402 2.52573166 -1.2791655 1.2791655 0 0 Z " fill="#E3F72C" transform="translate(226,169)"/>
<path d="M0 0 C1 2 1 2 1.375 4.0625 C1.684375 5.0215625 1.684375 5.0215625 2 6 C2.99 6.33 3.98 6.66 5 7 C4.67 8.32 4.34 9.64 4 11 C1.03 8.03 -1.94 5.06 -5 2 C-3.68 1.67 -2.36 1.34 -1 1 C-0.67 0.67 -0.34 0.34 0 0 Z " fill="#EAFC34" transform="translate(525,132)"/>
<path d="M0 0 C2.31 0.33 4.62 0.66 7 1 C4.19195732 3.96404505 1.81684226 6.44499019 -2 8 C-1.34 5.36 -0.68 2.72 0 0 Z " fill="#E8F923" transform="translate(114,114)"/>
<path d="M0 0 C1.60597325 0.45196245 3.20972508 0.91182327 4.8125 1.375 C6.15248047 1.75785156 6.15248047 1.75785156 7.51953125 2.1484375 C10 3 10 3 13 5 C12.67 5.66 12.34 6.32 12 7 C11.01 7 10.02 7 9 7 C9 6.34 9 5.68 9 5 C8.01 5 7.02 5 6 5 C6 4.34 6 3.68 6 3 C4.02 3 2.04 3 0 3 C0 2.01 0 1.02 0 0 Z " fill="#EAF92D" transform="translate(835,22)"/>
<path d="M0 0 C5.94 0 11.88 0 18 0 C18 0.33 18 0.66 18 1 C15.37583048 1.36164523 12.75099687 1.71461153 10.125 2.0625 C9.37863281 2.16626953 8.63226562 2.27003906 7.86328125 2.37695312 C2.2265625 3.11328125 2.2265625 3.11328125 0 2 C0 1.34 0 0.68 0 0 Z " fill="#E4F535" transform="translate(692,221)"/>
<path d="M0 0 C1.2065625 0.0309375 1.2065625 0.0309375 2.4375 0.0625 C-2.1875 4.9375 -2.1875 4.9375 -5.5625 6.0625 C-5.5625 5.4025 -5.5625 4.7425 -5.5625 4.0625 C-6.2225 3.7325 -6.8825 3.4025 -7.5625 3.0625 C-6.9025 2.4025 -6.2425 1.7425 -5.5625 1.0625 C-4.9025 1.0625 -4.2425 1.0625 -3.5625 1.0625 C-2.5625 0.0625 -2.5625 0.0625 0 0 Z " fill="#E8FB25" transform="translate(250.5625,209.9375)"/>
<path d="M0 0 C1.29065057 3.8719517 0.22324098 6.44232601 -0.9375 10.1875 C-1.23043945 11.16879883 -1.23043945 11.16879883 -1.52929688 12.16992188 C-2.01182563 13.78227407 -2.50490205 15.39146289 -3 17 C-3.33 17 -3.66 17 -4 17 C-4.26479098 11.83657587 -3.59280546 6.91606623 -2 2 C-1.34 1.34 -0.68 0.68 0 0 Z " fill="#E5F538" transform="translate(811,107)"/>
<path d="M0 0 C2.475 0.99 2.475 0.99 5 2 C5 2.66 5 3.32 5 4 C6.32 4.33 7.64 4.66 9 5 C8.67 5.99 8.34 6.98 8 8 C7.67 8 7.34 8 7 8 C6.67 9.65 6.34 11.3 6 13 C5.67 13 5.34 13 5 13 C4.89042969 12.39671875 4.78085937 11.7934375 4.66796875 11.171875 C3.49202872 5.06315013 3.49202872 5.06315013 0 0 Z " fill="#E5F62A" transform="translate(532,63)"/>
<path d="M0 0 C0.33 0 0.66 0 1 0 C1.05397335 2.4377963 1.09365616 4.87439685 1.125 7.3125 C1.14175781 8.00279297 1.15851562 8.69308594 1.17578125 9.40429688 C1.21217794 13.17135396 1.14378864 14.78431704 -1 18 C-1.19412181 16.52168779 -1.38012131 15.04230684 -1.5625 13.5625 C-1.66691406 12.73878906 -1.77132812 11.91507813 -1.87890625 11.06640625 C-1.91886719 10.38449219 -1.95882812 9.70257813 -2 9 C-1.67 8.67 -1.34 8.34 -1 8 C-0.76924918 6.65252916 -0.58846937 5.29622435 -0.4375 3.9375 C-0.293125 2.638125 -0.14875 1.33875 0 0 Z " fill="#E0F117" transform="translate(676,82)"/>
<path d="M0 0 C0.99 0.33 1.98 0.66 3 1 C3.765625 2.92578125 3.765625 2.92578125 4.25 5.3125 C4.50523437 6.48232422 4.50523437 6.48232422 4.765625 7.67578125 C5.00771617 10.07651867 4.7310448 11.71809588 4 14 C3 13 3 13 2.90234375 10.93359375 C2.91974609 9.69802734 2.91974609 9.69802734 2.9375 8.4375 C2.94652344 7.61121094 2.95554687 6.78492188 2.96484375 5.93359375 C2.97644531 5.29550781 2.98804688 4.65742187 3 4 C2.01 4.33 1.02 4.66 0 5 C0 3.35 0 1.7 0 0 Z " fill="#EAF637" transform="translate(848,29)"/>
<path d="M0 0 C0.33 0 0.66 0 1 0 C1 1.98 1 3.96 1 6 C0.34 6 -0.32 6 -1 6 C-0.938125 6.928125 -0.87625 7.85625 -0.8125 8.8125 C-1 12 -1 12 -2.5 13.875 C-3.2425 14.431875 -3.2425 14.431875 -4 15 C-3.43179252 9.54520815 -2.05362055 5.08940744 0 0 Z " fill="#EAF837" transform="translate(802,22)"/>
<path d="M0 0 C0.33 0 0.66 0 1 0 C1.33 1.32 1.66 2.64 2 4 C2 3.34 2 2.68 2 2 C2.66 2 3.32 2 4 2 C4 2.66 4 3.32 4 4 C4.99 4.33 5.98 4.66 7 5 C6.01 6.485 6.01 6.485 5 8 C3.35 7.67 1.7 7.34 0 7 C0 4.69 0 2.38 0 0 Z " fill="#DAF402" transform="translate(169,29)"/>
<path d="M0 0 C2.475 0.495 2.475 0.495 5 1 C5.0825 1.598125 5.165 2.19625 5.25 2.8125 C6.20455872 5.5966296 7.57132271 6.43311142 10 8 C9.67 8.99 9.34 9.98 9 11 C7.49703315 9.35687553 5.99769719 7.71042916 4.5 6.0625 C3.6646875 5.14597656 2.829375 4.22945312 1.96875 3.28515625 C0 1 0 1 0 0 Z " fill="#E3F636" transform="translate(93,187)"/>
<path d="M0 0 C0.66 0 1.32 0 2 0 C2 1.32 2 2.64 2 4 C2.66 4 3.32 4 4 4 C4.33 4.99 4.66 5.98 5 7 C5.66 7.33 6.32 7.66 7 8 C6.67 9.65 6.34 11.3 6 13 C2.57068046 9.2440786 1.43570917 4.76533255 0 0 Z " fill="#E5F52F" transform="translate(365,175)"/>
<path d="M0 0 C0.99 0.33 1.98 0.66 3 1 C2.34 1 1.68 1 1 1 C0.87625 2.175625 0.7525 3.35125 0.625 4.5625 C0.13564065 8.54120426 -0.8055205 12.17766559 -2 16 C-2.33 16 -2.66 16 -3 16 C-3 12.7 -3 9.4 -3 6 C-2.34 6 -1.68 6 -1 6 C-0.67 4.02 -0.34 2.04 0 0 Z " fill="#E0F433" transform="translate(818,80)"/>
<path d="M0 0 C5.31427203 2.70923672 8.42148591 5.22864787 12 10 C8.62496331 8.8141763 6.35277269 7.72426311 4 5 C3.67 5.66 3.34 6.32 3 7 C2.67 5.35 2.34 3.7 2 2 C1.34 2 0.68 2 0 2 C0 1.34 0 0.68 0 0 Z " fill="#EBFA3E" transform="translate(540,43)"/>
<path d="M0 0 C0.66 0 1.32 0 2 0 C1.44854729 5.23880078 0.57077907 9.97350697 -1 15 C-1.33 15 -1.66 15 -2 15 C-2.19392201 9.47322267 -1.7479503 5.24385089 0 0 Z " fill="#E1EF2F" transform="translate(783,205)"/>
<path d="M0 0 C0.33 0.53625 0.66 1.0725 1 1.625 C2.87266716 3.23831789 2.87266716 3.23831789 4.98046875 2.75390625 C7.00481529 2.23438369 9.0046053 1.62151638 11 1 C10.67 1.66 10.34 2.32 10 3 C9.01 3 8.02 3 7 3 C7 3.66 7 4.32 7 5 C4.36 5.33 1.72 5.66 -1 6 C-0.67 4.02 -0.34 2.04 0 0 Z " fill="#E5F730" transform="translate(205,178)"/>
<path d="M0 0 C2 3 2 3 1.875 5 C0.76097537 7.54634201 -0.69550623 8.51322983 -3 10 C-2.25 3.375 -2.25 3.375 0 0 Z " fill="#E5F81B" transform="translate(575,136)"/>
<path d="M0 0 C4.29 0.33 8.58 0.66 13 1 C13 1.66 13 2.32 13 3 C8.545 3.495 8.545 3.495 4 4 C4.33 3.01 4.66 2.02 5 1 C3.35 1 1.7 1 0 1 C0 0.67 0 0.34 0 0 Z " fill="#DEF41B" transform="translate(718,19)"/>
<path d="M0 0 C0.33 0 0.66 0 1 0 C1 4.29 1 8.58 1 13 C-0.98 13.99 -0.98 13.99 -3 15 C-2.01 10.05 -1.02 5.1 0 0 Z " fill="#E7F53D" transform="translate(112,48)"/>
<path d="M0 0 C4.04256383 1.22217046 7.49288959 2.62754296 11 5 C11 5.33 11 5.66 11 6 C9.02 6.33 7.04 6.66 5 7 C4.67 5.68 4.34 4.36 4 3 C2.68 2.67 1.36 2.34 0 2 C0 1.34 0 0.68 0 0 Z " fill="#E5F52E" transform="translate(196,13)"/>
<path d="M0 0 C0.99 0 1.98 0 3 0 C4.02028865 1.31787285 5.01971384 2.65210653 6 4 C6.99 4.33 7.98 4.66 9 5 C9.33 4.34 9.66 3.68 10 3 C10 4.65 10 6.3 10 8 C4.98886765 6.5682479 3.05530451 4.01554307 0 0 Z " fill="#E2F730" transform="translate(174,198)"/>
<path d="M0 0 C0.66 0 1.32 0 2 0 C5.57142857 7.28571429 5.57142857 7.28571429 4 12 C1.57869669 9.57869669 1.47159496 8.19888623 0.875 4.875 C0.70742188 3.96492187 0.53984375 3.05484375 0.3671875 2.1171875 C0.24601563 1.41851562 0.12484375 0.71984375 0 0 Z " fill="#DCEF2C" transform="translate(833,176)"/>
<path d="M0 0 C0.66 0 1.32 0 2 0 C2.28875 0.928125 2.5775 1.85625 2.875 2.8125 C3.8875 6.09791667 3.8875 6.09791667 6 9 C2.2047869 7.50902342 0.38957269 5.24299151 -2 2 C-1.34 1.34 -0.68 0.68 0 0 Z " fill="#E4F42D" transform="translate(386,210)"/>
<path d="M0 0 C2.31 0 4.62 0 7 0 C6.67 0.66 6.34 1.32 6 2 C5.01 2 4.02 2 3 2 C3.33 3.65 3.66 5.3 4 7 C1.49962266 4.82575883 0.56371414 3.26954202 0 0 Z " fill="#E3F724" transform="translate(167,186)"/>
<path d="M0 0 C1.5625 1.5625 1.5625 1.5625 3 4 C2.6875 7.75 2.6875 7.75 2 11 C1 8 1 8 1 6 C-0.32 5.67 -1.64 5.34 -3 5 C-2.01 3.35 -1.02 1.7 0 0 Z " fill="#EAFA32" transform="translate(575,164)"/>
<path d="M0 0 C0.99 0 1.98 0 3 0 C2.01 3.3 1.02 6.6 0 10 C-0.33 10 -0.66 10 -1 10 C-1.02689216 8.52093108 -1.04634621 7.04172517 -1.0625 5.5625 C-1.07410156 4.73878906 -1.08570313 3.91507812 -1.09765625 3.06640625 C-1 1 -1 1 0 0 Z " fill="#DFF404" transform="translate(236,122)"/>
<path d="M0 0 C0.66 0 1.32 0 2 0 C1 3 1 3 -1 5 C-1.33 5.66 -1.66 6.32 -2 7 C-3.98 7 -5.96 7 -8 7 C-5.47211993 4.20127563 -3.79588866 2.54226981 0 2 C0 1.34 0 0.68 0 0 Z " fill="#EAF734" transform="translate(79,97)"/>
<path d="M0 0 C3.33773709 3.64116773 3.97864902 7.28607242 5 12 C2.5 9.9375 2.5 9.9375 0 7 C-0.3125 3.1875 -0.3125 3.1875 0 0 Z " fill="#E5F52E" transform="translate(348,37)"/>
<path d="M0 0 C4.43090471 1.20842856 6.98112756 2.51668565 10 6 C9.01 6.495 9.01 6.495 8 7 C7.67 6.34 7.34 5.68 7 5 C6.01 4.690625 5.02 4.38125 4 4.0625 C3.01 3.711875 2.02 3.36125 1 3 C0.67 2.01 0.34 1.02 0 0 Z " fill="#E5F731" transform="translate(114,15)"/>
<path d="M0 0 C2.72727273 4.09090909 2.72727273 4.09090909 3 7 C1.5625 8.75 1.5625 8.75 0 10 C-0.66 9.67 -1.32 9.34 -2 9 C-1.855625 8.443125 -1.71125 7.88625 -1.5625 7.3125 C-0.97230872 4.88615805 -0.476571 2.45093655 0 0 Z " fill="#E3F634" transform="translate(231,153)"/>
<path d="M0 0 C0.66 0.99 1.32 1.98 2 3 C0.35 4.65 -1.3 6.3 -3 8 C-3.75 6.25 -3.75 6.25 -4 4 C-2.0625 1.75 -2.0625 1.75 0 0 Z " fill="#E5F819" transform="translate(550,97)"/>
<path d="M0 0 C0.66 0.66 1.32 1.32 2 2 C-0.2386565 4.2386565 -2.06570533 4.8996395 -5 6 C-5.99 6.495 -5.99 6.495 -7 7 C-5.54744301 3.17053157 -3.57104439 1.87949705 0 0 Z " fill="#E6F92A" transform="translate(504,47)"/>
<path d="M0 0 C0.33 0 0.66 0 1 0 C0.67 3.96 0.34 7.92 0 12 C-0.66 12 -1.32 12 -2 12 C-2.28571429 3.42857143 -2.28571429 3.42857143 0 0 Z " fill="#D9EB21" transform="translate(751,200)"/>
<path d="M0 0 C-0.598125 0.20625 -1.19625 0.4125 -1.8125 0.625 C-4.81018767 2.50926082 -5.61361776 4.81132084 -7 8 C-7.33 8 -7.66 8 -8 8 C-8 5.69 -8 3.38 -8 1 C-5.07175348 0.02391783 -3.04386724 -0.08226668 0 0 Z " fill="#E6F63A" transform="translate(799,176)"/>
<path d="M0 0 C0.66 0.66 1.32 1.32 2 2 C2.66 1.67 3.32 1.34 4 1 C4 1.66 4 2.32 4 3 C4.66 3 5.32 3 6 3 C6 3.66 6 4.32 6 5 C4.35 5 2.7 5 1 5 C0.67 5.66 0.34 6.32 0 7 C0 4.69 0 2.38 0 0 Z " fill="#EBFC20" transform="translate(232,145)"/>
<path d="M0 0 C1.96301592 3.50538557 2.95902388 7.13351728 4 11 C3.34 11 2.68 11 2 11 C0.19769832 7.17010894 -0.19622241 4.21878192 0 0 Z " fill="#E0F326" transform="translate(357,60)"/>
<path d="M0 0 C0.82638376 2.89234315 1 4.88742431 1 8 C0.01 8 -0.98 8 -2 8 C-2.20086443 4.28400809 -2.1519437 3.22791555 0 0 Z " fill="#E7F71E" transform="translate(652,20)"/>
<path d="M0 0 C-3.83325617 2.70582788 -6.32538149 3.32613618 -11 3 C-11 2.34 -11 1.68 -11 1 C-9.5437328 0.63743142 -8.08488815 0.28520207 -6.625 -0.0625 C-5.40683594 -0.35833984 -5.40683594 -0.35833984 -4.1640625 -0.66015625 C-2 -1 -2 -1 0 0 Z " fill="#E7F73D" transform="translate(576,177)"/>
<path d="M0 0 C2.6855594 2.6855594 3.06049974 5.37621328 4 9 C3.34 9 2.68 9 2 9 C2 8.34 2 7.68 2 7 C1.34 7 0.68 7 0 7 C0 4.69 0 2.38 0 0 Z " fill="#E9FA3C" transform="translate(373,101)"/>
<path d="M0 0 C2.0625 1.75 2.0625 1.75 4 4 C3.75 6.25 3.75 6.25 3 8 C2.34 7.67 1.68 7.34 1 7 C0.38812962 4.61370553 0 2.46459429 0 0 Z " fill="#E8F822" transform="translate(141,192)"/>
<path d="M0 0 C1.485 0.99 1.485 0.99 3 2 C2.67 4.31 2.34 6.62 2 9 C0.79371992 6.66785852 -0.1654738 4.50357861 -1 2 C-0.67 1.34 -0.34 0.68 0 0 Z " fill="#E4F235" transform="translate(837,188)"/>
<path d="M0 0 C4 4.75 4 4.75 4 7 C1.525 6.01 1.525 6.01 -1 5 C-0.67 3.35 -0.34 1.7 0 0 Z " fill="#E7F72F" transform="translate(517,89)"/>
<path d="M0 0 C0.66 0.99 1.32 1.98 2 3 C1.34 3 0.68 3 0 3 C0 4.98 0 6.96 0 9 C-0.99 9 -1.98 9 -3 9 C-2.01 6.03 -1.02 3.06 0 0 Z " fill="#E3F52B" transform="translate(793,50)"/>
<path d="M0 0 C4.42857143 5.14285714 4.42857143 5.14285714 5 9 C4.34 9 3.68 9 3 9 C3 8.01 3 7.02 3 6 C2.34 6 1.68 6 1 6 C0.67 4.02 0.34 2.04 0 0 Z " fill="#E6F939" transform="translate(140,39)"/>
</svg>
