 <svg  version="1.0" xmlns="http://www.w3.org/2000/svg"  width="210.000000pt" height="54.000000pt" viewBox="0 0 210.000000 54.000000"  preserveAspectRatio="xMidYMid meet">  <g transform="translate(0.000000,54.000000) scale(0.100000,-0.100000)" fill="#303030" stroke="none"> <path d="M120 520 c0 -17 -7 -20 -42 -20 -78 -1 -78 0 -78 -234 0 -131 4 -206 10 -206 6 0 10 -6 10 -14 0 -45 77 -15 87 34 7 38 23 38 48 -1 11 -17 33 -37 48 -45 25 -13 31 -13 57 2 16 10 30 27 32 38 4 27 25 32 33 7 7 -23 80 -61 116 -61 27 0 89 51 89 73 0 8 7 18 16 21 13 5 15 27 12 160 -3 148 3 187 22 156 18 -29 23 -127 13 -255 -12 -152 -5 -175 50 -175 48 1 67 20 67 69 0 30 4 41 15 41 19 0 19 29 1 56 -8 11 -16 31 -18 44 -1 14 -10 26 -18 28 -13 2 -15 -14 -16 -99 -1 -75 -5 -103 -15 -110 -9 -5 -19 -3 -27 5 -16 16 -18 394 -2 410 13 13 65 -38 80 -79 12 -31 26 -32 34 -2 10 37 7 47 -14 47 -15 0 -20 7 -20 24 0 28 -53 72 -73 62 -7 -4 -23 -13 -37 -21 -23 -14 -26 -13 -39 5 -7 11 -20 20 -27 20 -8 0 -14 9 -14 20 0 15 -7 20 -25 20 -17 0 -25 -6 -25 -16 0 -9 -6 -22 -14 -28 -12 -9 -13 -37 -9 -149 4 -80 10 -134 15 -129 5 5 11 64 13 132 3 68 8 127 12 131 5 4 17 0 28 -9 20 -16 20 -25 15 -179 -5 -160 -5 -161 -32 -186 -37 -35 -62 -41 -106 -26 -68 22 -72 33 -72 208 0 86 4 162 9 169 5 8 17 12 27 10 18 -3 19 -16 22 -171 3 -175 3 -177 46 -161 20 8 21 30 1 41 -12 7 -15 39 -17 163 l-3 154 -34 7 c-48 10 -81 -4 -81 -36 0 -34 -21 -32 -42 5 -13 23 -24 30 -48 30 -23 0 -30 4 -30 20 0 15 -7 20 -25 20 -18 0 -25 -5 -25 -20z m40 -35 c7 -8 17 -15 23 -15 6 0 26 -10 44 -22 30 -21 33 -27 33 -74 0 -44 3 -52 21 -57 17 -5 20 -11 15 -29 -15 -48 -18 -98 -8 -110 14 -17 3 -68 -14 -68 -8 0 -17 -7 -20 -15 -8 -21 -40 -19 -64 5 -11 11 -24 20 -28 20 -10 0 -46 47 -55 72 -6 18 -26 25 -28 11 0 -5 -2 -30 -5 -58 -3 -49 -28 -85 -46 -67 -5 5 -7 96 -6 203 l3 194 36 -3 c24 -2 42 2 50 12 18 20 33 20 49 1z"/> <path d="M98 429 c-25 -10 -27 -13 -25 -74 2 -64 11 -81 37 -65 11 7 12 16 3 45 -16 49 -2 88 29 83 27 -4 35 -32 17 -64 -7 -13 -9 -27 -6 -30 4 -4 10 2 14 12 4 10 16 26 27 35 18 14 19 20 8 43 -9 21 -18 26 -44 25 -18 0 -45 -5 -60 -10z"/> <path d="M199 280 l-44 -39 18 -31 c9 -17 17 -36 17 -40 0 -13 46 -60 59 -60 16 0 14 25 -4 40 -8 7 -15 18 -15 25 0 7 -7 18 -15 25 -22 18 -19 35 15 74 43 48 23 53 -31 6z"/> <path d="M782 515 c-6 -14 -16 -25 -22 -25 -16 0 -12 -44 8 -89 l19 -41 13 39 c7 21 9 47 6 59 -4 11 -2 23 4 27 5 3 10 0 11 -7 0 -7 2 -26 5 -43 19 -149 22 -230 8 -263 -8 -19 -14 -45 -14 -59 0 -30 -28 -42 -45 -20 -17 24 -35 21 -35 -6 0 -26 48 -67 78 -67 10 0 30 12 44 27 l26 28 1 198 2 197 -26 24 c-14 13 -25 28 -25 35 0 22 -47 12 -58 -14z"/> <path d="M1982 523 c2 -13 13 -18 38 -18 25 0 36 5 38 18 3 14 -4 17 -38 17 -34 0 -41 -3 -38 -17z"/> <path d="M1270 438 c-7 -35 -15 -137 -17 -228 l-5 -165 25 -14 c19 -10 52 -12 122 -9 73 4 100 2 110 -8 17 -18 65 -17 88 0 10 8 17 27 17 49 0 26 6 39 19 47 32 16 40 12 51 -27 14 -52 21 -61 50 -64 44 -4 57 1 74 25 14 22 14 29 1 67 -8 23 -15 67 -15 99 0 32 -7 77 -15 100 -8 23 -15 66 -15 94 0 46 -3 55 -30 74 -20 15 -44 22 -74 22 -42 0 -45 -2 -60 -40 -9 -22 -16 -47 -16 -54 0 -8 -7 -27 -15 -42 -8 -16 -15 -46 -15 -66 0 -27 -4 -38 -15 -38 -9 0 -15 9 -15 24 0 33 -10 37 -77 37 -71 0 -77 4 -57 35 14 20 24 24 70 24 49 0 55 3 64 25 10 27 -2 74 -23 87 -7 4 -58 8 -113 8 l-102 0 -12 -62z m207 7 c8 -22 3 -25 -58 -28 -50 -2 -54 -4 -60 -32 -4 -17 -9 -37 -13 -45 -13 -30 16 -50 79 -53 50 -3 61 -7 64 -23 2 -10 9 -23 17 -27 9 -5 14 -25 14 -53 0 -54 20 -56 32 -3 13 54 40 141 55 176 7 17 13 37 13 45 0 7 9 24 19 37 17 22 21 23 49 12 28 -12 30 -16 42 -104 14 -106 28 -280 24 -286 -6 -7 -43 44 -44 60 0 22 -23 40 -38 30 -8 -4 -23 -6 -35 -4 -31 6 -60 -28 -66 -80 -5 -34 -10 -43 -28 -45 -21 -3 -23 0 -23 51 0 64 -4 67 -91 67 -59 0 -59 0 -59 30 0 28 2 30 39 30 48 0 71 8 71 25 0 25 -29 27 -117 9 -21 -4 -23 -10 -23 -64 0 -65 13 -77 64 -64 40 10 76 -3 76 -27 0 -19 -5 -20 -92 -17 l-93 3 2 120 c0 66 7 155 14 198 l13 77 73 0 c57 0 75 -3 80 -15z"/> <path d="M1647 343 c-10 -17 -12 -136 -2 -139 26 -9 38 15 36 72 -1 31 -4 61 -7 65 -6 11 -21 12 -27 2z"/> <path d="M1797 493 c-4 -3 -7 -23 -7 -43 0 -43 24 -70 63 -70 l27 0 0 -180 c0 -172 1 -180 19 -180 11 0 23 -4 26 -10 10 -17 51 -11 69 9 16 17 17 39 14 185 l-3 165 47 23 c46 22 48 25 48 66 0 36 -3 43 -17 40 -10 -2 -18 -13 -18 -25 -1 -29 -23 -53 -50 -53 -44 0 -50 -21 -54 -212 -2 -134 -6 -177 -15 -168 -7 7 -13 74 -16 181 -5 153 -7 172 -25 185 -10 8 -31 14 -47 14 -21 0 -28 5 -28 19 0 15 11 20 62 25 70 8 86 15 67 27 -16 10 -153 12 -162 2z"/> <path d="M1010 445 c-31 -33 -52 -93 -39 -116 14 -26 11 -65 -6 -79 -17 -14 -22 -110 -6 -110 5 0 17 -7 26 -16 20 -20 58 -21 91 -3 20 10 29 10 44 1 30 -18 70 -15 71 6 9 102 0 132 -36 132 -16 0 -25 6 -25 15 0 8 4 15 10 15 5 0 17 17 25 37 20 46 8 81 -40 118 -43 32 -85 32 -115 0z m84 -37 c14 -6 28 -19 32 -30 7 -22 -4 -78 -16 -78 -12 0 -20 -28 -13 -46 3 -8 16 -20 29 -25 18 -6 24 -16 24 -40 0 -26 -2 -29 -14 -20 -15 13 -66 5 -66 -10 0 -14 -43 -10 -62 5 -22 16 -23 62 -2 83 12 13 14 28 9 73 -6 52 -4 60 16 79 26 24 30 25 63 9z"/> <path d="M1047 384 c-10 -11 -8 -62 3 -69 20 -12 51 15 48 43 -3 26 -34 42 -51 26z"/> <path d="M1042 243 c-16 -6 -34 -51 -27 -64 8 -12 65 18 65 35 0 18 -22 34 -38 29z"/> <path d="M740 301 c0 -29 22 -61 41 -61 10 0 12 50 3 74 -3 9 -15 16 -25 16 -14 0 -19 -7 -19 -29z"/> </g> </svg> 